<svg id="Layer_1" data-name="Layer 1" xmlns="http://www.w3.org/2000/svg" width="210mm" height="162.942mm" viewBox="0 0 595.276 461.883">
  <defs>
    <style>
      .cls-1 {
        fill: #e6e6e6;
      }

      .cls-2, .cls-3, .cls-7 {
        fill: #fff;
      }

      .cls-2 {
        stroke: #aaa;
      }

      .cls-2, .cls-4, .cls-5 {
        stroke-miterlimit: 10;
      }

      .cls-4, .cls-5, .cls-8, .cls-9 {
        fill: none;
      }

      .cls-4, .cls-5 {
        stroke: #000;
      }

      .cls-5 {
        stroke-dasharray: 2.995 2.995;
      }

      .cls-6 {
        fill: #06c;
      }

      .cls-7, .cls-8, .cls-9 {
        stroke: #5b5b5b;
        stroke-linecap: round;
        stroke-linejoin: round;
      }

      .cls-7, .cls-9 {
        stroke-width: 1.5px;
      }

      .cls-8 {
        stroke-width: 2px;
      }

      .cls-10 {
        fill: #5b5b5b;
      }
    </style>
  </defs>
  <rect class="cls-1" x="77.545" y="299.11" width="440.186" height="131.731"/>
  <rect class="cls-1" x="77.545" y="73.527" width="199.537" height="141.484"/>
  <rect class="cls-2" x="97.799" y="123.765" width="159.029" height="70.13"/>
  <g>
    <path d="M228.815,413.79a4.249,4.249,0,0,0,2.367.828c.855,0,1.415-.309,1.415-.771,0-.378-.28-.589-.91-.687l-1.4-.209c-1.443-.225-2.213-.939-2.213-2.116,0-1.414,1.176-2.311,3.039-2.311a5.4,5.4,0,0,1,3,.91l-.925,1.233a4.307,4.307,0,0,0-2.255-.7c-.7,0-1.148.279-1.148.714,0,.393.28.589.994.687l1.4.209c1.429.21,2.227.953,2.227,2.087,0,1.373-1.359,2.41-3.194,2.41a5.378,5.378,0,0,1-3.347-1.008Z"/>
    <path d="M239.009,416.074a3.8,3.8,0,0,1-3.922-3.782,3.724,3.724,0,0,1,3.754-3.781,3.682,3.682,0,0,1,3.613,3.921v.5h-5.435a2.1,2.1,0,0,0,2.074,1.527,2.292,2.292,0,0,0,1.61-.589l1.261,1.15A4.375,4.375,0,0,1,239.009,416.074Zm-2-4.51h3.571a1.882,1.882,0,0,0-1.778-1.471A1.832,1.832,0,0,0,237.006,411.564Z"/>
    <path d="M243.627,408.637h1.919v.8a2.322,2.322,0,0,1,1.947-.965,1.63,1.63,0,0,1,.8.168v1.68a2.449,2.449,0,0,0-.98-.2,1.932,1.932,0,0,0-1.765,1.093v4.721h-1.919Z"/>
    <path d="M248.848,408.637h2.087l2,4.859,1.989-4.859h2.045l-3.137,7.3h-1.849Z"/>
    <path d="M261.031,416.074a3.8,3.8,0,0,1-3.922-3.782,3.724,3.724,0,0,1,3.754-3.781,3.682,3.682,0,0,1,3.613,3.921v.5h-5.434a2.1,2.1,0,0,0,2.073,1.527,2.292,2.292,0,0,0,1.61-.589l1.261,1.15A4.375,4.375,0,0,1,261.031,416.074Zm-2-4.51H262.6a1.882,1.882,0,0,0-1.778-1.471A1.831,1.831,0,0,0,259.028,411.564Z"/>
    <path d="M265.648,408.637h1.919v.8a2.325,2.325,0,0,1,1.947-.965,1.637,1.637,0,0,1,.8.168v1.68a2.457,2.457,0,0,0-.981-.2,1.933,1.933,0,0,0-1.765,1.093v4.721h-1.919Z"/>
    <path d="M271.978,414.94a1.142,1.142,0,1,1-1.149-1.15A1.151,1.151,0,0,1,271.978,414.94Z"/>
    <path d="M276.556,416.074a3.8,3.8,0,0,1-3.921-3.782,3.724,3.724,0,0,1,3.753-3.781A3.682,3.682,0,0,1,280,412.432v.5h-5.435a2.1,2.1,0,0,0,2.073,1.527,2.293,2.293,0,0,0,1.611-.589l1.261,1.15A4.378,4.378,0,0,1,276.556,416.074Zm-2-4.51h3.572a1.882,1.882,0,0,0-1.779-1.471A1.834,1.834,0,0,0,274.553,411.564Z"/>
    <path d="M282.646,412.222l-2.732-3.585h2.227l1.611,2.17,1.6-2.17h2.158l-2.69,3.557,2.858,3.74h-2.242l-1.723-2.325-1.722,2.325h-2.144Z"/>
    <path d="M287.769,413.819c0-1.387,1.12-2.213,3-2.213a5.869,5.869,0,0,1,1.779.28v-.518c0-.841-.518-1.275-1.54-1.275a5.643,5.643,0,0,0-2.228.6l-.7-1.414a7.613,7.613,0,0,1,3.25-.785c1.975,0,3.109.981,3.109,2.7v4.734h-1.891v-.5a3.468,3.468,0,0,1-2.115.63C288.862,416.06,287.769,415.15,287.769,413.819Zm3.165.868a2.755,2.755,0,0,0,1.611-.462v-1.093a4.259,4.259,0,0,0-1.54-.265c-.883,0-1.4.349-1.4.91S290.122,414.687,290.934,414.687Z"/>
    <path d="M295.888,408.637h1.919v.545a2.842,2.842,0,0,1,1.906-.686,2.618,2.618,0,0,1,2.2,1.093,3.005,3.005,0,0,1,2.409-1.093,2.723,2.723,0,0,1,2.788,2.9v4.538H305.19v-4.258a1.362,1.362,0,0,0-1.373-1.527,1.644,1.644,0,0,0-1.4.728,3.107,3.107,0,0,1,.043.519v4.538h-1.92v-4.258a1.362,1.362,0,0,0-1.372-1.527,1.633,1.633,0,0,0-1.36.658v5.127h-1.919Z"/>
    <path d="M308.573,408.637h1.891v.6a3.3,3.3,0,0,1,2.073-.7,3.747,3.747,0,0,1-.056,7.494,3.619,3.619,0,0,1-1.989-.575v3.405h-1.919Zm1.919,2.227v2.871a2.46,2.46,0,0,0,1.737.673,2.116,2.116,0,1,0,0-4.231A2.351,2.351,0,0,0,310.492,410.864Z"/>
    <path d="M319.34,415.934h-1.919v-9.805l1.919-.42Z"/>
    <path d="M324.423,416.074a3.8,3.8,0,0,1-3.922-3.782,3.724,3.724,0,0,1,3.754-3.781,3.682,3.682,0,0,1,3.613,3.921v.5h-5.435a2.1,2.1,0,0,0,2.074,1.527,2.292,2.292,0,0,0,1.61-.589l1.261,1.15A4.377,4.377,0,0,1,324.423,416.074Zm-2-4.51h3.571a1.882,1.882,0,0,0-1.778-1.471A1.831,1.831,0,0,0,322.42,411.564Z"/>
    <path d="M330.694,414.94a1.142,1.142,0,1,1-1.149-1.15A1.151,1.151,0,0,1,330.694,414.94Z"/>
    <path d="M337,413.58l1.148,1.191a4.049,4.049,0,0,1-2.969,1.3,3.789,3.789,0,1,1,0-7.578,4.1,4.1,0,0,1,3.025,1.3l-1.177,1.247a2.368,2.368,0,0,0-1.806-.883,2.12,2.12,0,0,0,.042,4.231A2.265,2.265,0,0,0,337,413.58Z"/>
    <path d="M342.413,408.5a3.79,3.79,0,1,1-3.9,3.8A3.8,3.8,0,0,1,342.413,408.5Zm2.016,3.8a2.019,2.019,0,1,0-2.016,2.116A2.045,2.045,0,0,0,344.429,412.292Z"/>
    <path d="M347.478,408.637H349.4v.545a2.841,2.841,0,0,1,1.905-.686,2.62,2.62,0,0,1,2.2,1.093,3.005,3.005,0,0,1,2.409-1.093,2.723,2.723,0,0,1,2.788,2.9v4.538H356.78v-4.258a1.362,1.362,0,0,0-1.373-1.527,1.644,1.644,0,0,0-1.4.728,3.107,3.107,0,0,1,.043.519v4.538h-1.92v-4.258a1.362,1.362,0,0,0-1.372-1.527,1.632,1.632,0,0,0-1.36.658v5.127h-1.919Z"/>
  </g>
  <g>
    <path d="M151.023,152.9h3.586a4.9,4.9,0,1,1,0,9.806h-3.586Zm1.68,1.457v6.892h1.948a3.461,3.461,0,0,0,0-6.892Z"/>
    <path d="M164.422,155.578a3.636,3.636,0,1,1-3.53,3.628A3.5,3.5,0,0,1,164.422,155.578Zm1.961,3.642a1.984,1.984,0,1,0-3.922,0,1.98,1.98,0,1,0,3.922,0Z"/>
    <path d="M168.55,155.69h1.723l1.947,5.127,1.947-5.127h1.667l-2.886,7.018h-1.527Z"/>
    <path d="M180,162.847a3.567,3.567,0,0,1-3.572-3.641,3.457,3.457,0,0,1,3.418-3.628,3.368,3.368,0,0,1,3.32,3.614v.392h-5.183a2.144,2.144,0,0,0,2.1,1.919,2.281,2.281,0,0,0,1.667-.658l1.036.966A4.054,4.054,0,0,1,180,162.847Zm-1.989-4.229h3.656a1.921,1.921,0,0,0-1.835-1.751A1.885,1.885,0,0,0,178.015,158.618Z"/>
    <path d="M189.833,160.677l.952.953a3.649,3.649,0,0,1-2.745,1.217,3.628,3.628,0,0,1,0-7.255,3.788,3.788,0,0,1,2.8,1.176l-.981,1.023a2.32,2.32,0,0,0-1.765-.826,2.251,2.251,0,0,0,.042,4.482A2.157,2.157,0,0,0,189.833,160.677Z"/>
    <path d="M195.138,155.578a3.636,3.636,0,1,1-3.53,3.628A3.5,3.5,0,0,1,195.138,155.578Zm1.961,3.642a1.984,1.984,0,1,0-3.922,0,1.98,1.98,0,1,0,3.922,0Z"/>
    <path d="M200.835,156.951H199.42V155.69h1.415v-1.933l1.582-.336v2.269h1.962v1.261h-1.962v3.558c0,.686.267.952.981.952a2.906,2.906,0,0,0,.952-.168v1.331a4.976,4.976,0,0,1-1.358.2c-1.415,0-2.157-.673-2.157-1.961Z"/>
  </g>
  <g>
    <line class="cls-3" x1="257.068" y1="355.942" x2="338.448" y2="355.942"/>
    <g>
      <line class="cls-4" x1="257.068" y1="355.942" x2="331.272" y2="355.942"/>
      <polygon points="329.813 360.928 338.448 355.943 329.813 350.957 329.813 360.928"/>
    </g>
  </g>
  <rect class="cls-1" x="318.193" y="73.527" width="199.537" height="141.484"/>
  <rect class="cls-2" x="338.448" y="123.765" width="159.029" height="70.13"/>
  <rect class="cls-2" x="338.448" y="320.877" width="159.029" height="70.13"/>
  <g>
    <path d="M395.759,152.9h4.384a3.042,3.042,0,1,1,0,6.066h-2.7v3.74h-1.68Zm1.68,1.415V157.6h2.438a1.651,1.651,0,1,0,.014-3.279Z"/>
    <path d="M407.9,155.578a3.636,3.636,0,1,1-3.53,3.628A3.5,3.5,0,0,1,407.9,155.578Zm1.961,3.642a1.984,1.984,0,1,0-3.922,0,1.98,1.98,0,1,0,3.922,0Z"/>
    <path d="M413.175,160.831a4.047,4.047,0,0,0,2.254.8c.841,0,1.415-.379,1.415-.94,0-.433-.293-.672-.966-.8l-1.246-.21c-1.36-.251-2.032-.882-2.032-1.933,0-1.317,1.078-2.171,2.718-2.171a4.94,4.94,0,0,1,2.759.841l-.742,1.036a3.84,3.84,0,0,0-2.116-.672c-.728,0-1.2.308-1.2.826,0,.448.252.645,1,.771l1.232.223c1.4.267,2.073.911,2.073,1.961,0,1.289-1.232,2.283-2.857,2.283a4.706,4.706,0,0,1-3.026-.952Z"/>
    <path d="M420.5,156.951h-1.415V155.69H420.5v-1.933l1.583-.336v2.269h1.961v1.261H422.08v3.558c0,.686.265.952.98.952a2.9,2.9,0,0,0,.952-.168v1.331a4.976,4.976,0,0,1-1.358.2c-1.415,0-2.157-.673-2.157-1.961Z"/>
    <path d="M426.516,155.69v-1.247a2.155,2.155,0,0,1,2.424-2.353,3.814,3.814,0,0,1,1.05.14v1.345a3.232,3.232,0,0,0-.84-.112c-.728,0-1.051.322-1.051,1.009v1.218h1.891v1.261H428.1v5.757h-1.583v-5.757H425V155.69Z"/>
    <path d="M431.122,153.295a.987.987,0,0,1,1.974,0,.987.987,0,0,1-1.974,0Zm1.779,9.413h-1.583V155.69H432.9Z"/>
    <path d="M436.667,159.136,434.1,155.69h1.849l1.64,2.311,1.638-2.311H441l-2.522,3.4,2.718,3.614h-1.863l-1.765-2.48-1.764,2.48h-1.766Z"/>
  </g>
  <g>
    <path d="M428.071,248.46a4.131,4.131,0,0,0,3.334,1.793c1.372,0,2.312-.686,2.312-1.68,0-.729-.5-1.149-1.738-1.457l-1.541-.407c-1.512-.391-2.283-1.218-2.283-2.423,0-1.765,1.387-2.872,3.572-2.872a5.908,5.908,0,0,1,4.006,1.612l-.925,1.05a4.627,4.627,0,0,0-3.207-1.428c-1.261,0-2.059.574-2.059,1.47,0,.672.462,1.092,1.541,1.373l1.485.364c1.764.434,2.576,1.233,2.576,2.508,0,1.89-1.511,3.123-3.838,3.123a5.237,5.237,0,0,1-4.244-2.059Z"/>
    <path d="M439.693,251.486a3.327,3.327,0,0,1-3.516-3.375,3.929,3.929,0,0,1,3.795-4.007,3.159,3.159,0,0,1,3.11,3.389,5.577,5.577,0,0,1-.041.729h-5.52a2.192,2.192,0,0,0,2.256,2.073,2.919,2.919,0,0,0,1.765-.56l.742.925A4.293,4.293,0,0,1,439.693,251.486Zm-2.059-4.3h4.16a1.952,1.952,0,0,0-1.919-1.891A2.424,2.424,0,0,0,437.634,247.186Z"/>
    <path d="M445.151,244.216h1.359l-.126.616a3.178,3.178,0,0,1,2.059-.742,2.259,2.259,0,0,1,2.3,2.97l-.91,4.286h-1.36l.87-4.132c.252-1.163-.323-1.919-1.415-1.919a2.408,2.408,0,0,0-1.822.84L445,251.346h-1.359Z"/>
    <path d="M456.857,250.911a3.351,3.351,0,0,1-1.849.547,3.156,3.156,0,0,1-3.152-3.292,3.992,3.992,0,0,1,3.937-4.048,3.291,3.291,0,0,1,2.31.882l.729-3.46,1.429-.307-2.144,10.113H456.76Zm-1.513-.658a2.651,2.651,0,0,0,1.779-.672l.7-3.292a2.354,2.354,0,0,0-1.976-.966,2.682,2.682,0,0,0-2.647,2.731A2.1,2.1,0,0,0,455.344,250.253Z"/>
    <path d="M464.933,241.54h7.075l-.267,1.289h-5.659l-.616,2.942h3.7l-.267,1.261h-3.7l-.645,3.025h5.7l-.28,1.289h-7.131Z"/>
    <path d="M472.829,244.216h1.358l-.139.658a2.921,2.921,0,0,1,1.974-.784,2.077,2.077,0,0,1,2.017,1.261,3.312,3.312,0,0,1,2.536-1.261c1.583,0,2.479,1.233,2.115,2.9l-.925,4.356h-1.358l.9-4.244c.224-1.065-.293-1.807-1.26-1.807a2.383,2.383,0,0,0-1.822.994,3.206,3.206,0,0,1-.069.7l-.925,4.356h-1.373l.883-4.174c.252-1.121-.253-1.877-1.247-1.877a2.251,2.251,0,0,0-1.723.882l-1.092,5.169h-1.359Z"/>
    <path d="M483.482,249.455c0-1.428,1.135-2.339,2.942-2.339a4.874,4.874,0,0,1,2.143.49l.14-.63q.357-1.724-1.6-1.724a5.573,5.573,0,0,0-2.073.5l-.364-1.064a7.08,7.08,0,0,1,2.7-.6c2.045,0,3.052,1.065,2.675,2.844l-.939,4.412h-1.345l.113-.519a3.349,3.349,0,0,1-1.961.617C484.435,251.444,483.482,250.66,483.482,249.455Zm2.844.953a2.991,2.991,0,0,0,1.765-.575l.266-1.232a3.221,3.221,0,0,0-1.877-.532c-1.009,0-1.695.517-1.695,1.259C484.785,250,485.359,250.408,486.326,250.408Z"/>
    <path d="M492.037,251.346h-1.36l1.514-7.13h1.358Zm.406-9.049a.984.984,0,0,1,.952-.967.757.757,0,0,1,.757.771.986.986,0,0,1-.953.967A.748.748,0,0,1,492.443,242.3Z"/>
    <path d="M495.047,251.346h-1.36l2.088-9.806,1.428-.307Z"/>
    <path d="M429.359,262.193h-1.484l.252-1.177h1.47l.393-1.821,1.443-.336-.463,2.157h2.045l-.252,1.177h-2.044L429.906,266c-.168.771.112,1.079.98,1.079a3.412,3.412,0,0,0,.855-.126l-.252,1.163a5.014,5.014,0,0,1-1.149.14c-1.456,0-2.115-.715-1.848-1.989Z"/>
    <path d="M436.754,260.876a3.32,3.32,0,0,1,3.4,3.4,4,4,0,0,1-3.894,4.005,3.324,3.324,0,0,1-3.4-3.417A3.989,3.989,0,0,1,436.754,260.876Zm2.058,3.474a2.127,2.127,0,0,0-2.115-2.241A2.618,2.618,0,0,0,434.2,264.8a2.122,2.122,0,0,0,2.115,2.255A2.631,2.631,0,0,0,438.812,264.35Z"/>
    <path d="M444.508,265.26a4.13,4.13,0,0,0,3.334,1.793c1.372,0,2.31-.686,2.31-1.681,0-.728-.5-1.148-1.736-1.457l-1.541-.406c-1.514-.391-2.283-1.219-2.283-2.423,0-1.765,1.386-2.872,3.571-2.872a5.908,5.908,0,0,1,4.007,1.612l-.925,1.05a4.631,4.631,0,0,0-3.208-1.428c-1.261,0-2.059.574-2.059,1.47,0,.672.462,1.092,1.541,1.372l1.485.365c1.764.434,2.577,1.232,2.577,2.507,0,1.891-1.513,3.123-3.838,3.123a5.232,5.232,0,0,1-4.244-2.058Z"/>
    <path d="M455.274,260.133l-1.694,8.013h-1.36l2.087-9.806h1.864l1.694,6.276,4.329-6.276h1.975l-2.087,9.806h-1.33l1.679-7.971-5.112,7.271Z"/>
    <path d="M465.381,258.34h8.18l-.28,1.3h-3.375l-1.808,8.5h-1.442l1.807-8.5h-3.375Z"/>
    <path d="M474.789,258.34h4.077a2.581,2.581,0,0,1,2.886,2.592,3.331,3.331,0,0,1-3.545,3.264h-3.236l-.84,3.95H472.7Zm1.149,1.289-.7,3.32h2.955a1.946,1.946,0,0,0,2.115-1.905c0-.883-.631-1.415-1.667-1.415Z"/>
    <path d="M485.106,266.143a3.237,3.237,0,0,0,2.353,1.051c.926,0,1.584-.449,1.584-1.079,0-.449-.309-.7-1-.855l-1.233-.28c-1.19-.266-1.779-.882-1.779-1.849,0-1.358,1.065-2.227,2.7-2.227a4.458,4.458,0,0,1,2.955,1.106l-.8.883a3.518,3.518,0,0,0-2.24-.91c-.841,0-1.387.391-1.387,1.008,0,.434.28.686,1.022.854l1.233.28c1.219.267,1.821.883,1.821,1.835,0,1.331-1.247,2.325-2.914,2.325a4.384,4.384,0,0,1-3.166-1.274Z"/>
    <path d="M494.908,268.285a3.327,3.327,0,0,1-3.516-3.375,3.929,3.929,0,0,1,3.8-4.006,3.158,3.158,0,0,1,3.11,3.389,5.446,5.446,0,0,1-.042.729h-5.52a2.193,2.193,0,0,0,2.256,2.073,2.922,2.922,0,0,0,1.766-.56l.742.924A4.287,4.287,0,0,1,494.908,268.285Zm-2.059-4.3h4.161a1.954,1.954,0,0,0-1.92-1.892A2.426,2.426,0,0,0,492.849,263.986Z"/>
    <path d="M500.352,261.016h1.359l-.168.812a2.6,2.6,0,0,1,1.989-.966,1.8,1.8,0,0,1,.8.154l-.252,1.261a1.884,1.884,0,0,0-.9-.2,2.33,2.33,0,0,0-1.947,1.177l-1.036,4.889H498.84Z"/>
    <path d="M504.859,261.016h1.457l1.051,5.337,3.306-5.337H512.2l-4.537,7.13h-1.318Z"/>
    <path d="M515.389,268.285a3.327,3.327,0,0,1-3.516-3.375,3.929,3.929,0,0,1,3.8-4.006,3.157,3.157,0,0,1,3.109,3.389,5.446,5.446,0,0,1-.042.729h-5.518a2.189,2.189,0,0,0,2.254,2.073,2.917,2.917,0,0,0,1.765-.56l.742.924A4.286,4.286,0,0,1,515.389,268.285Zm-2.059-4.3h4.16a1.951,1.951,0,0,0-1.918-1.892A2.427,2.427,0,0,0,513.33,263.986Z"/>
    <path d="M520.834,261.016h1.359l-.168.812a2.6,2.6,0,0,1,1.988-.966,1.8,1.8,0,0,1,.8.154l-.252,1.261a1.886,1.886,0,0,0-.9-.2,2.326,2.326,0,0,0-1.947,1.177l-1.038,4.889h-1.357Z"/>
  </g>
  <g>
    <path d="M360.214,369.837H364.6a3.042,3.042,0,1,1,0,6.065h-2.7v3.74h-1.68Zm1.68,1.415v3.278h2.438a1.65,1.65,0,1,0,.014-3.278Z"/>
    <path d="M372.353,372.513a3.636,3.636,0,1,1-3.53,3.627A3.5,3.5,0,0,1,372.353,372.513Zm1.961,3.641a1.984,1.984,0,1,0-3.922,0,1.98,1.98,0,1,0,3.922,0Z"/>
    <path d="M377.63,377.765a4.04,4.04,0,0,0,2.255.8c.84,0,1.415-.379,1.415-.939,0-.434-.294-.672-.967-.8l-1.246-.21c-1.36-.252-2.032-.883-2.032-1.934,0-1.316,1.079-2.17,2.718-2.17a4.937,4.937,0,0,1,2.759.84l-.742,1.036a3.846,3.846,0,0,0-2.115-.671c-.729,0-1.2.307-1.2.826,0,.448.252.644.995.77l1.232.224c1.4.267,2.073.911,2.073,1.961,0,1.289-1.232,2.283-2.857,2.283a4.712,4.712,0,0,1-3.026-.952Z"/>
    <path d="M384.952,373.886h-1.415v-1.261h1.415v-1.934l1.583-.336v2.27H388.5v1.261h-1.961v3.557c0,.687.266.952.98.952a2.907,2.907,0,0,0,.953-.168v1.331a4.99,4.99,0,0,1-1.359.2c-1.415,0-2.157-.673-2.157-1.961Z"/>
    <path d="M390.971,372.625v-1.247a2.155,2.155,0,0,1,2.424-2.354,3.811,3.811,0,0,1,1.05.141v1.345a3.232,3.232,0,0,0-.84-.113c-.728,0-1.051.323-1.051,1.009v1.219h1.891v1.261h-1.891v5.756h-1.583v-5.756h-1.512v-1.261Z"/>
    <path d="M395.577,370.229a.988.988,0,0,1,1.975,0,.988.988,0,0,1-1.975,0Zm1.779,9.413h-1.583v-7.017h1.583Z"/>
    <path d="M401.122,376.07l-2.564-3.445h1.849l1.64,2.31,1.638-2.31h1.765l-2.522,3.4,2.718,3.614h-1.863l-1.765-2.479-1.764,2.479h-1.766Z"/>
    <path d="M411.761,369.837l5.114,7.116-.029-7.116h1.583v9.805h-1.5l-5.253-7.311.029,7.311h-1.583v-9.805Z"/>
    <path d="M422.122,376.8a1.51,1.51,0,0,0,1.54,1.68,1.771,1.771,0,0,0,1.541-.868v-4.986h1.583v7.017H425.2v-1.163a2.565,2.565,0,0,1-2.241,1.276,2.354,2.354,0,0,1-2.423-2.508v-4.622h1.583Z"/>
    <path d="M430.311,379.642h-1.583V369.627l1.583-.266Z"/>
    <path d="M433.84,379.642h-1.583V369.627l1.583-.266Z"/>
    <path d="M446.414,377l1.107,1.064a5.033,5.033,0,1,1,.042-6.639l-1.135,1.121a3.449,3.449,0,1,0-2.633,5.728A3.324,3.324,0,0,0,446.414,377Z"/>
    <path d="M450.639,379.642h-1.583V369.627l1.583-.266Z"/>
    <path d="M452.387,370.229a.988.988,0,0,1,1.976,0,.988.988,0,0,1-1.976,0Zm1.78,9.413h-1.583v-7.017h1.583Z"/>
    <path d="M459.362,379.782a3.567,3.567,0,0,1-3.572-3.642,3.456,3.456,0,0,1,3.418-3.627,3.368,3.368,0,0,1,3.32,3.614v.391h-5.183a2.143,2.143,0,0,0,2.1,1.919,2.279,2.279,0,0,0,1.667-.658l1.036.967A4.052,4.052,0,0,1,459.362,379.782Zm-1.989-4.229h3.656a1.92,1.92,0,0,0-1.835-1.751A1.885,1.885,0,0,0,457.373,375.553Z"/>
    <path d="M464.134,372.625h1.583v1.148a2.547,2.547,0,0,1,2.227-1.26,2.361,2.361,0,0,1,2.423,2.507v4.622h-1.583v-4.173a1.511,1.511,0,0,0-1.54-1.682,1.8,1.8,0,0,0-1.527.841v5.014h-1.583Z"/>
    <path d="M472.94,373.886h-1.415v-1.261h1.415v-1.934l1.583-.336v2.27h1.961v1.261h-1.961v3.557c0,.687.266.952.981.952a2.906,2.906,0,0,0,.952-.168v1.331a4.985,4.985,0,0,1-1.359.2c-1.415,0-2.157-.673-2.157-1.961Z"/>
  </g>
  <g>
    <line class="cls-4" x1="417.962" y1="202.187" x2="417.962" y2="320.877"/>
    <polygon points="412.976 203.646 417.961 195.012 422.948 203.646 412.976 203.646"/>
  </g>
  <g>
    <g>
      <line class="cls-3" x1="155.927" y1="193.895" x2="155.927" y2="320.877"/>
      <g>
        <line class="cls-4" x1="155.927" y1="201.071" x2="155.927" y2="202.571"/>
        <line class="cls-5" x1="155.927" y1="205.566" x2="155.927" y2="317.88"/>
        <line class="cls-4" x1="155.927" y1="319.377" x2="155.927" y2="320.877"/>
        <polygon points="150.942 202.53 155.927 193.895 160.913 202.53 150.942 202.53"/>
      </g>
    </g>
    <g>
      <line class="cls-3" x1="177.314" y1="195.012" x2="177.314" y2="320.877"/>
      <g>
        <line class="cls-4" x1="177.314" y1="195.012" x2="177.314" y2="313.702"/>
        <polygon points="172.328 312.243 177.313 320.877 182.3 312.243 172.328 312.243"/>
      </g>
    </g>
  </g>
  <g>
    <rect class="cls-3" x="98.8" y="321.877" width="157.028" height="68.13"/>
    <path class="cls-6" d="M254.828,322.877v66.131H99.8V322.877H254.828m2-2H97.8v70.131H256.828V320.877Z"/>
  </g>
  <g>
    <path d="M145.466,371.952v7.691h-1.555v-9.806H146.1l2.872,5.94,2.857-5.94h2.185v9.806h-1.583v-7.649l-3.474,6.949Z"/>
    <path d="M155.684,377.625c0-1.259,1.023-2.058,2.676-2.058a4.328,4.328,0,0,1,1.891.434v-.77c0-.925-.532-1.4-1.611-1.4a4.845,4.845,0,0,0-2.045.547l-.561-1.148a6.747,6.747,0,0,1,2.914-.715c1.821,0,2.872.925,2.872,2.55v4.58h-1.569v-.715a2.929,2.929,0,0,1-2.087.827A2.214,2.214,0,0,1,155.684,377.625Zm2.914,1.024a2.509,2.509,0,0,0,1.653-.574v-1.15a3.637,3.637,0,0,0-1.625-.336c-.9,0-1.457.393-1.457,1.009C157.169,378.243,157.729,378.649,158.6,378.649Z"/>
    <path d="M163.538,370.23a.988.988,0,0,1,1.975,0,.988.988,0,0,1-1.975,0Zm1.78,9.413h-1.583v-7.018h1.583Z"/>
    <path d="M168.845,379.643h-1.583V369.627l1.583-.265Z"/>
    <path d="M181.42,377l1.107,1.065a5.032,5.032,0,1,1,.042-6.64l-1.135,1.121a3.449,3.449,0,1,0-2.633,5.729A3.322,3.322,0,0,0,181.42,377Z"/>
    <path d="M185.645,379.643h-1.583V369.627l1.583-.265Z"/>
    <path d="M187.394,370.23a.988.988,0,0,1,1.975,0,.988.988,0,0,1-1.975,0Zm1.779,9.413H187.59v-7.018h1.583Z"/>
    <path d="M194.368,379.783a3.567,3.567,0,0,1-3.572-3.642,3.457,3.457,0,0,1,3.418-3.628,3.368,3.368,0,0,1,3.32,3.614v.392h-5.183a2.144,2.144,0,0,0,2.1,1.919,2.275,2.275,0,0,0,1.667-.658l1.037.966A4.057,4.057,0,0,1,194.368,379.783Zm-1.989-4.23h3.656A1.921,1.921,0,0,0,194.2,373.8,1.885,1.885,0,0,0,192.379,375.553Z"/>
    <path d="M199.14,372.625h1.583v1.149a2.549,2.549,0,0,1,2.227-1.261,2.362,2.362,0,0,1,2.424,2.508v4.622h-1.583v-4.174a1.512,1.512,0,0,0-1.541-1.682,1.8,1.8,0,0,0-1.527.841v5.015H199.14Z"/>
    <path d="M207.947,373.886h-1.415v-1.261h1.415v-1.933l1.582-.336v2.269h1.961v1.261h-1.961v3.558c0,.686.266.952.981.952a2.906,2.906,0,0,0,.952-.168v1.331a4.976,4.976,0,0,1-1.358.2c-1.415,0-2.157-.673-2.157-1.961Z"/>
  </g>
  <g>
    <rect class="cls-7" x="141.969" y="336.621" width="70.69" height="17.672"/>
    <line class="cls-8" x1="205.102" y1="344.2" x2="205.102" y2="344.2"/>
    <line class="cls-9" x1="150.626" y1="346.72" x2="161.229" y2="346.72"/>
  </g>
  <g>
    <rect class="cls-3" x="202.467" y="348.181" width="18.467" height="14.656"/>
    <path class="cls-10" d="M203.923,350.616v9.523l5.046-4.73Zm14.587-.765H204.671l6.92,6.573Zm-6.551,7.7a.535.535,0,0,1-.737,0l-1.477-1.4-5.667,5.313a.533.533,0,0,0,.38.159h14.265a.533.533,0,0,0,.38-.159l-5.667-5.313Zm2.253-2.14,5.046,4.73v-9.523Z"/>
  </g>
  <g>
    <rect class="cls-7" x="378.479" y="336.621" width="70.69" height="17.672"/>
    <line class="cls-8" x1="441.613" y1="344.2" x2="441.613" y2="344.2"/>
    <line class="cls-9" x1="387.136" y1="346.72" x2="397.74" y2="346.72"/>
  </g>
  <g>
    <rect class="cls-3" x="438.978" y="348.181" width="18.467" height="14.656"/>
    <path class="cls-10" d="M440.434,350.616v9.523l5.045-4.73Zm14.586-.765H441.182l6.919,6.573Zm-6.55,7.7a.535.535,0,0,1-.737,0l-1.477-1.4-5.668,5.313a.535.535,0,0,0,.381.159h14.265a.533.533,0,0,0,.38-.159l-5.668-5.313Zm2.253-2.14,5.046,4.73v-9.523Z"/>
  </g>
  <g>
    <path d="M76.071,241.54h7.1l-.28,1.289H77.22l-.63,3.012h3.726L80.05,247.1H76.309l-.9,4.244H73.984Z"/>
    <path d="M85.214,251.486a3.327,3.327,0,0,1-3.516-3.375,3.929,3.929,0,0,1,3.8-4.007,3.159,3.159,0,0,1,3.11,3.389,5.446,5.446,0,0,1-.042.729H83.043A2.191,2.191,0,0,0,85.3,250.3a2.917,2.917,0,0,0,1.765-.56l.742.925A4.293,4.293,0,0,1,85.214,251.486Zm-2.059-4.3h4.16A1.951,1.951,0,0,0,85.4,245.3,2.425,2.425,0,0,0,83.155,247.186Z"/>
    <path d="M90.981,245.393H89.5l.253-1.177h1.47l.393-1.821,1.442-.336-.462,2.157h2.045l-.252,1.177H92.34l-.812,3.809c-.168.771.112,1.08.98,1.08a3.412,3.412,0,0,0,.855-.126l-.252,1.162a4.973,4.973,0,0,1-1.149.14c-1.457,0-2.115-.715-1.849-1.989Z"/>
    <path d="M99.734,249.511l.686.952a4.2,4.2,0,0,1-2.7,1.023,3.191,3.191,0,0,1-3.278-3.291,4.062,4.062,0,0,1,3.95-4.1,3.492,3.492,0,0,1,2.815,1.4l-.966.882a2.259,2.259,0,0,0-1.891-1.036,2.707,2.707,0,0,0-2.536,2.787,2.044,2.044,0,0,0,2.059,2.129A2.884,2.884,0,0,0,99.734,249.511Z"/>
    <path d="M103.273,241.54l1.429-.307-.771,3.586a3.27,3.27,0,0,1,2.059-.729,2.259,2.259,0,0,1,2.3,2.97l-.911,4.286h-1.358l.868-4.132c.252-1.163-.322-1.919-1.415-1.919a2.427,2.427,0,0,0-1.821.84l-1.106,5.211h-1.359Z"/>
    <path d="M114.151,241.54h7.074l-.266,1.289H115.3l-.616,2.942h3.7l-.267,1.261h-3.7l-.645,3.025h5.7l-.28,1.289h-7.13Z"/>
    <path d="M122.047,244.216h1.359l-.141.658a2.924,2.924,0,0,1,1.975-.784,2.079,2.079,0,0,1,2.018,1.261,3.308,3.308,0,0,1,2.535-1.261c1.583,0,2.48,1.233,2.115,2.9l-.924,4.356h-1.359l.9-4.244c.224-1.065-.295-1.807-1.261-1.807a2.377,2.377,0,0,0-1.821.994,3.211,3.211,0,0,1-.07.7l-.924,4.356h-1.373l.882-4.174c.252-1.121-.252-1.877-1.247-1.877a2.25,2.25,0,0,0-1.722.882l-1.093,5.169h-1.359Z"/>
    <path d="M132.7,249.455c0-1.428,1.135-2.339,2.941-2.339a4.878,4.878,0,0,1,2.144.49l.14-.63q.357-1.724-1.6-1.724a5.569,5.569,0,0,0-2.073.5l-.365-1.064a7.087,7.087,0,0,1,2.7-.6c2.045,0,3.054,1.065,2.675,2.844l-.938,4.412h-1.345l.112-.519a3.347,3.347,0,0,1-1.961.617C133.653,251.444,132.7,250.66,132.7,249.455Zm2.844.953a2.985,2.985,0,0,0,1.764-.575l.266-1.232a3.216,3.216,0,0,0-1.876-.532c-1.009,0-1.7.517-1.7,1.259C134,250,134.577,250.408,135.544,250.408Z"/>
    <path d="M141.255,251.346H139.9l1.513-7.13h1.358Zm.406-9.049a.985.985,0,0,1,.953-.967.757.757,0,0,1,.756.771.985.985,0,0,1-.953.967A.748.748,0,0,1,141.661,242.3Z"/>
    <path d="M144.264,251.346h-1.358l2.087-9.806,1.429-.307Z"/>
    <path d="M38.1,261.016l.266-1.232a2.468,2.468,0,0,1,2.592-2.144,3.041,3.041,0,0,1,1.176.21l-.238,1.2a2.356,2.356,0,0,0-.952-.183,1.122,1.122,0,0,0-1.233,1.038l-.238,1.106h2l-.252,1.177h-2l-1.261,5.953H36.592l1.26-5.953h-1.6l.253-1.177Z"/>
    <path d="M42.528,261.016h1.358l-.168.812a2.6,2.6,0,0,1,1.989-.966,1.8,1.8,0,0,1,.8.154l-.252,1.261a1.893,1.893,0,0,0-.9-.2,2.327,2.327,0,0,0-1.947,1.177l-1.037,4.889H41.015Z"/>
    <path d="M50.271,260.876a3.321,3.321,0,0,1,3.4,3.4,4,4,0,0,1-3.894,4.005,3.324,3.324,0,0,1-3.4-3.417A3.989,3.989,0,0,1,50.271,260.876Zm2.059,3.474a2.127,2.127,0,0,0-2.115-2.241,2.618,2.618,0,0,0-2.493,2.689,2.122,2.122,0,0,0,2.115,2.255A2.63,2.63,0,0,0,52.33,264.35Z"/>
    <path d="M55.744,261.016H57.1l-.139.658a2.92,2.92,0,0,1,1.974-.784,2.077,2.077,0,0,1,2.017,1.261,3.31,3.31,0,0,1,2.536-1.261c1.583,0,2.479,1.232,2.115,2.9l-.925,4.357H63.322l.9-4.244c.224-1.065-.295-1.808-1.261-1.808a2.379,2.379,0,0,0-1.822,1,3.2,3.2,0,0,1-.069.7l-.925,4.357H58.769l.883-4.174c.252-1.121-.252-1.878-1.247-1.878a2.253,2.253,0,0,0-1.723.883l-1.092,5.169H54.231Z"/>
    <path d="M71.451,258.34h1.43l-2.088,9.806H69.365Z"/>
    <path d="M75.821,260.133l-1.695,8.013H72.767l2.087-9.806h1.863l1.7,6.276,4.328-6.276h1.975l-2.087,9.806H81.3l1.68-7.971-5.113,7.271Z"/>
    <path d="M89.626,258.34h1.708l1.891,9.806h-1.5l-.519-2.871h-4.3L85.2,268.146H83.616Zm1.358,5.716-.77-4.314-2.578,4.314Z"/>
    <path d="M96.287,258.34h4.077a2.58,2.58,0,0,1,2.885,2.592,3.329,3.329,0,0,1-3.544,3.264H96.469l-.84,3.95H94.2Zm1.149,1.289-.7,3.32h2.955a1.946,1.946,0,0,0,2.115-1.905c0-.883-.63-1.415-1.667-1.415Z"/>
    <path d="M106.605,266.143a3.234,3.234,0,0,0,2.353,1.051c.925,0,1.583-.449,1.583-1.079,0-.449-.308-.7-.995-.855l-1.232-.28c-1.191-.266-1.779-.882-1.779-1.849,0-1.358,1.064-2.227,2.7-2.227a4.461,4.461,0,0,1,2.956,1.106l-.8.883a3.52,3.52,0,0,0-2.241-.91c-.84,0-1.387.391-1.387,1.008,0,.434.281.686,1.023.854l1.233.28c1.218.267,1.821.883,1.821,1.835,0,1.331-1.247,2.325-2.914,2.325a4.384,4.384,0,0,1-3.166-1.274Z"/>
    <path d="M116.406,268.285a3.327,3.327,0,0,1-3.516-3.375,3.929,3.929,0,0,1,3.8-4.006,3.158,3.158,0,0,1,3.11,3.389,5.446,5.446,0,0,1-.042.729h-5.519a2.191,2.191,0,0,0,2.255,2.073,2.917,2.917,0,0,0,1.765-.56l.742.924A4.286,4.286,0,0,1,116.406,268.285Zm-2.059-4.3h4.16a1.952,1.952,0,0,0-1.919-1.892A2.426,2.426,0,0,0,114.347,263.986Z"/>
    <path d="M121.851,261.016h1.359l-.169.812a2.6,2.6,0,0,1,1.99-.966,1.8,1.8,0,0,1,.8.154l-.252,1.261a1.887,1.887,0,0,0-.9-.2,2.328,2.328,0,0,0-1.947,1.177l-1.036,4.889h-1.359Z"/>
    <path d="M126.358,261.016h1.457l1.05,5.337,3.307-5.337H133.7l-4.538,7.13h-1.317Z"/>
    <path d="M136.888,268.285a3.327,3.327,0,0,1-3.516-3.375,3.929,3.929,0,0,1,3.8-4.006,3.158,3.158,0,0,1,3.11,3.389,5.446,5.446,0,0,1-.042.729h-5.519a2.191,2.191,0,0,0,2.255,2.073,2.917,2.917,0,0,0,1.765-.56l.742.924A4.286,4.286,0,0,1,136.888,268.285Zm-2.059-4.3h4.16a1.952,1.952,0,0,0-1.919-1.892A2.426,2.426,0,0,0,134.829,263.986Z"/>
    <path d="M142.333,261.016h1.359l-.169.812a2.6,2.6,0,0,1,1.989-.966,1.8,1.8,0,0,1,.8.154l-.252,1.261a1.887,1.887,0,0,0-.9-.2,2.327,2.327,0,0,0-1.947,1.177l-1.037,4.889H140.82Z"/>
  </g>
  <g>
    <line class="cls-4" x1="177.314" y1="33.172" x2="177.314" y2="116.589"/>
    <polygon points="172.328 115.13 177.313 123.765 182.3 115.13 172.328 115.13"/>
  </g>
  <g>
    <line class="cls-4" x1="417.962" y1="40.348" x2="417.962" y2="123.765"/>
    <polygon points="412.976 41.807 417.962 33.172 422.948 41.807 412.976 41.807"/>
  </g>
  <rect class="cls-1" x="402.174" y="82.971" width="34.185" height="18.888"/>
  <rect class="cls-1" x="159.803" y="82.971" width="34.185" height="18.888"/>
  <g>
    <path d="M357.049,92.961a4.242,4.242,0,0,0,2.367.827c.854,0,1.415-.308,1.415-.77,0-.378-.28-.589-.91-.687l-1.4-.21c-1.442-.224-2.213-.938-2.213-2.115,0-1.415,1.177-2.311,3.039-2.311a5.388,5.388,0,0,1,3,.91l-.925,1.233a4.309,4.309,0,0,0-2.255-.7c-.7,0-1.149.279-1.149.714,0,.392.281.589,1,.686l1.4.21c1.429.21,2.226.953,2.226,2.087,0,1.373-1.358,2.409-3.193,2.409a5.381,5.381,0,0,1-3.348-1.007Z"/>
    <path d="M363.587,87.807h1.919v.546a2.838,2.838,0,0,1,1.905-.687,2.621,2.621,0,0,1,2.2,1.093,3,3,0,0,1,2.409-1.093,2.723,2.723,0,0,1,2.787,2.9v4.538h-1.919V90.847a1.362,1.362,0,0,0-1.373-1.527,1.643,1.643,0,0,0-1.4.728,3.108,3.108,0,0,1,.042.519v4.538h-1.919V90.847a1.362,1.362,0,0,0-1.373-1.527,1.628,1.628,0,0,0-1.358.658v5.127h-1.919Z"/>
    <path d="M376.985,89.417h-1.5v-1.61h1.5V85.944l1.919-.434v2.3h2.073v1.61H378.9v3.237c0,.686.266.938,1.009.938a2.958,2.958,0,0,0,1.022-.168v1.569a6,6,0,0,1-1.485.224c-1.625,0-2.465-.742-2.465-2.172Z"/>
    <path d="M381.927,87.807h1.89v.6a3.308,3.308,0,0,1,2.073-.7,3.747,3.747,0,0,1-.055,7.494,3.624,3.624,0,0,1-1.99-.574v3.405h-1.918Zm1.918,2.228v2.871a2.46,2.46,0,0,0,1.738.672,2.115,2.115,0,1,0,0-4.23A2.353,2.353,0,0,0,383.845,90.035Z"/>
    <path d="M392.54,94.111a1.142,1.142,0,1,1-1.15-1.15A1.151,1.151,0,0,1,392.54,94.111Z"/>
    <path d="M397.119,95.244a3.8,3.8,0,0,1-3.922-3.781,3.725,3.725,0,0,1,3.754-3.782,3.683,3.683,0,0,1,3.613,3.922v.5H395.13a2.1,2.1,0,0,0,2.073,1.527,2.291,2.291,0,0,0,1.61-.589l1.261,1.15A4.376,4.376,0,0,1,397.119,95.244Zm-2-4.509h3.571a1.882,1.882,0,0,0-1.778-1.471A1.831,1.831,0,0,0,395.116,90.735Z"/>
    <path d="M403.208,91.393l-2.732-3.586H402.7l1.611,2.171,1.6-2.171h2.157l-2.689,3.558,2.857,3.74H406l-1.723-2.325-1.722,2.325h-2.144Z"/>
    <path d="M408.331,92.99c0-1.387,1.12-2.213,3-2.213a5.874,5.874,0,0,1,1.779.28v-.519c0-.84-.518-1.274-1.541-1.274a5.639,5.639,0,0,0-2.227.6l-.7-1.415a7.619,7.619,0,0,1,3.25-.785c1.975,0,3.11.982,3.11,2.7v4.735h-1.891v-.5a3.468,3.468,0,0,1-2.115.63C409.424,95.231,408.331,94.321,408.331,92.99Zm3.165.868a2.763,2.763,0,0,0,1.611-.462V92.3a4.24,4.24,0,0,0-1.541-.266c-.883,0-1.4.35-1.4.911S410.683,93.858,411.5,93.858Z"/>
    <path d="M416.451,87.807h1.919v.546a2.838,2.838,0,0,1,1.9-.687,2.62,2.62,0,0,1,2.2,1.093,3,3,0,0,1,2.41-1.093,2.724,2.724,0,0,1,2.787,2.9v4.538h-1.919V90.847a1.362,1.362,0,0,0-1.373-1.527,1.644,1.644,0,0,0-1.4.728,3.006,3.006,0,0,1,.042.519v4.538H421.1V90.847a1.362,1.362,0,0,0-1.373-1.527,1.628,1.628,0,0,0-1.358.658v5.127h-1.919Z"/>
    <path d="M429.135,87.807h1.89v.6a3.308,3.308,0,0,1,2.073-.7,3.747,3.747,0,0,1-.055,7.494,3.624,3.624,0,0,1-1.99-.574v3.405h-1.918Zm1.918,2.228v2.871a2.46,2.46,0,0,0,1.738.672,2.115,2.115,0,1,0,0-4.23A2.353,2.353,0,0,0,431.053,90.035Z"/>
    <path d="M439.9,95.105h-1.919V85.3l1.919-.42Z"/>
    <path d="M444.984,95.244a3.8,3.8,0,0,1-3.922-3.781,3.725,3.725,0,0,1,3.754-3.782,3.683,3.683,0,0,1,3.613,3.922v.5H443a2.1,2.1,0,0,0,2.073,1.527,2.289,2.289,0,0,0,1.61-.589l1.261,1.15A4.374,4.374,0,0,1,444.984,95.244Zm-2-4.509h3.571a1.882,1.882,0,0,0-1.778-1.471A1.832,1.832,0,0,0,442.981,90.735Z"/>
    <path d="M451.256,94.111a1.142,1.142,0,1,1-1.15-1.15A1.151,1.151,0,0,1,451.256,94.111Z"/>
    <path d="M457.557,92.751l1.149,1.191a4.051,4.051,0,0,1-2.97,1.3,3.789,3.789,0,1,1,0-7.578,4.1,4.1,0,0,1,3.025,1.3l-1.176,1.247a2.37,2.37,0,0,0-1.807-.883,2.12,2.12,0,0,0,.042,4.231A2.263,2.263,0,0,0,457.557,92.751Z"/>
    <path d="M462.974,87.666a3.79,3.79,0,1,1-3.893,3.8A3.8,3.8,0,0,1,462.974,87.666Zm2.018,3.8a2.019,2.019,0,1,0-2.018,2.115A2.046,2.046,0,0,0,464.992,91.463Z"/>
    <path d="M468.041,87.807h1.919v.546a2.838,2.838,0,0,1,1.905-.687,2.621,2.621,0,0,1,2.2,1.093,3,3,0,0,1,2.409-1.093,2.724,2.724,0,0,1,2.788,2.9v4.538h-1.919V90.847a1.362,1.362,0,0,0-1.373-1.527,1.644,1.644,0,0,0-1.4.728,3.108,3.108,0,0,1,.042.519v4.538h-1.919V90.847a1.362,1.362,0,0,0-1.373-1.527,1.628,1.628,0,0,0-1.358.658v5.127h-1.919Z"/>
  </g>
  <g>
    <path d="M116.6,85.846a1.093,1.093,0,1,1,1.093,1.093A1.094,1.094,0,0,1,116.6,85.846Zm2.059,9.259h-1.919v-7.3h1.919Z"/>
    <path d="M120.152,87.807h1.919v.546a2.842,2.842,0,0,1,1.905-.687,2.623,2.623,0,0,1,2.2,1.093,3,3,0,0,1,2.409-1.093,2.724,2.724,0,0,1,2.787,2.9v4.538h-1.919V90.847a1.362,1.362,0,0,0-1.373-1.527,1.642,1.642,0,0,0-1.4.728,3.108,3.108,0,0,1,.042.519v4.538H124.8V90.847a1.362,1.362,0,0,0-1.372-1.527,1.63,1.63,0,0,0-1.359.658v5.127h-1.919Z"/>
    <path d="M132.486,92.99c0-1.387,1.12-2.213,3-2.213a5.869,5.869,0,0,1,1.779.28v-.519c0-.84-.518-1.274-1.541-1.274a5.643,5.643,0,0,0-2.227.6l-.7-1.415a7.613,7.613,0,0,1,3.25-.785c1.975,0,3.109.982,3.109,2.7v4.735h-1.891v-.5a3.468,3.468,0,0,1-2.115.63C133.578,95.231,132.486,94.321,132.486,92.99Zm3.165.868a2.763,2.763,0,0,0,1.611-.462V92.3a4.24,4.24,0,0,0-1.541-.266c-.882,0-1.4.35-1.4.911S134.839,93.858,135.651,93.858Z"/>
    <path d="M140.606,87.807H142.5v.6a3.306,3.306,0,0,1,2.073-.7,3.747,3.747,0,0,1-.056,7.494,3.62,3.62,0,0,1-1.989-.574v3.405h-1.919Zm1.919,2.228v2.871a2.457,2.457,0,0,0,1.737.672,2.115,2.115,0,1,0,0-4.23A2.35,2.35,0,0,0,142.525,90.035Z"/>
    <path d="M151.219,94.111a1.142,1.142,0,1,1-1.148-1.15A1.15,1.15,0,0,1,151.219,94.111Z"/>
    <path d="M155.8,95.244a3.8,3.8,0,0,1-3.922-3.781,3.725,3.725,0,0,1,3.754-3.782,3.683,3.683,0,0,1,3.613,3.922v.5h-5.434a2.1,2.1,0,0,0,2.073,1.527,2.292,2.292,0,0,0,1.61-.589l1.261,1.15A4.374,4.374,0,0,1,155.8,95.244Zm-2-4.509h3.571a1.882,1.882,0,0,0-1.778-1.471A1.831,1.831,0,0,0,153.795,90.735Z"/>
    <path d="M161.887,91.393l-2.731-3.586h2.227l1.61,2.171,1.6-2.171h2.157l-2.69,3.558,2.858,3.74h-2.241l-1.724-2.325-1.722,2.325h-2.143Z"/>
    <path d="M167.01,92.99c0-1.387,1.121-2.213,3-2.213a5.868,5.868,0,0,1,1.778.28v-.519c0-.84-.518-1.274-1.54-1.274a5.643,5.643,0,0,0-2.228.6l-.7-1.415a7.616,7.616,0,0,1,3.25-.785c1.975,0,3.109.982,3.109,2.7v4.735h-1.891v-.5a3.467,3.467,0,0,1-2.114.63C168.1,95.231,167.01,94.321,167.01,92.99Zm3.166.868a2.762,2.762,0,0,0,1.61-.462V92.3a4.238,4.238,0,0,0-1.54-.266c-.883,0-1.4.35-1.4.911S169.363,93.858,170.176,93.858Z"/>
    <path d="M175.13,87.807h1.919v.546a2.842,2.842,0,0,1,1.905-.687,2.623,2.623,0,0,1,2.2,1.093,3,3,0,0,1,2.409-1.093,2.724,2.724,0,0,1,2.787,2.9v4.538h-1.919V90.847a1.362,1.362,0,0,0-1.373-1.527,1.645,1.645,0,0,0-1.4.728,3,3,0,0,1,.043.519v4.538h-1.919V90.847a1.362,1.362,0,0,0-1.373-1.527,1.631,1.631,0,0,0-1.359.658v5.127H175.13Z"/>
    <path d="M187.814,87.807h1.891v.6a3.306,3.306,0,0,1,2.073-.7,3.747,3.747,0,0,1-.056,7.494,3.62,3.62,0,0,1-1.989-.574v3.405h-1.919Zm1.919,2.228v2.871a2.457,2.457,0,0,0,1.737.672,2.115,2.115,0,1,0,0-4.23A2.35,2.35,0,0,0,189.733,90.035Z"/>
    <path d="M198.581,95.105h-1.919V85.3l1.919-.42Z"/>
    <path d="M203.663,95.244a3.8,3.8,0,0,1-3.922-3.781,3.725,3.725,0,0,1,3.754-3.782,3.683,3.683,0,0,1,3.614,3.922v.5h-5.435a2.1,2.1,0,0,0,2.073,1.527,2.293,2.293,0,0,0,1.611-.589l1.261,1.15A4.377,4.377,0,0,1,203.663,95.244Zm-2-4.509h3.572a1.882,1.882,0,0,0-1.779-1.471A1.834,1.834,0,0,0,201.66,90.735Z"/>
    <path d="M209.935,94.111a1.142,1.142,0,1,1-1.149-1.15A1.15,1.15,0,0,1,209.935,94.111Z"/>
    <path d="M216.237,92.751l1.148,1.191a4.047,4.047,0,0,1-2.97,1.3,3.789,3.789,0,1,1,0-7.578,4.106,4.106,0,0,1,3.026,1.3l-1.177,1.247a2.369,2.369,0,0,0-1.807-.883,2.12,2.12,0,0,0,.042,4.231A2.265,2.265,0,0,0,216.237,92.751Z"/>
    <path d="M221.654,87.666a3.79,3.79,0,1,1-3.894,3.8A3.8,3.8,0,0,1,221.654,87.666Zm2.017,3.8a2.019,2.019,0,1,0-2.017,2.115A2.045,2.045,0,0,0,223.671,91.463Z"/>
    <path d="M226.719,87.807h1.919v.546a2.843,2.843,0,0,1,1.906-.687,2.621,2.621,0,0,1,2.2,1.093,3,3,0,0,1,2.409-1.093,2.724,2.724,0,0,1,2.788,2.9v4.538h-1.919V90.847a1.362,1.362,0,0,0-1.373-1.527,1.643,1.643,0,0,0-1.4.728,3.108,3.108,0,0,1,.042.519v4.538H231.37V90.847A1.362,1.362,0,0,0,230,89.32a1.631,1.631,0,0,0-1.359.658v5.127h-1.919Z"/>
  </g>
</svg>
