<svg id="Layer_1" data-name="Layer 1" xmlns="http://www.w3.org/2000/svg" width="210mm" height="166.531mm" viewBox="0 0 595.276 472.057">
  <defs>
    <style>
      .cls-1 {
        fill: #e6e6e6;
      }

      .cls-2, .cls-6, .cls-8 {
        fill: #fff;
      }

      .cls-2 {
        stroke: #aaa;
      }

      .cls-2, .cls-3, .cls-4, .cls-5 {
        stroke-miterlimit: 10;
      }

      .cls-10, .cls-3, .cls-4, .cls-5, .cls-9 {
        fill: none;
      }

      .cls-3, .cls-4, .cls-5 {
        stroke: #000;
      }

      .cls-4 {
        stroke-dasharray: 3.009 3.009;
      }

      .cls-5 {
        stroke-dasharray: 2.873 2.873;
      }

      .cls-7 {
        fill: #06c;
      }

      .cls-10, .cls-8, .cls-9 {
        stroke: #5b5b5b;
        stroke-linecap: round;
        stroke-linejoin: round;
      }

      .cls-10, .cls-8 {
        stroke-width: 1.5px;
      }

      .cls-9 {
        stroke-width: 2px;
      }

      .cls-11 {
        fill: #5b5b5b;
      }
    </style>
  </defs>
  <rect class="cls-1" x="77.545" y="303.723" width="440.186" height="131.731"/>
  <rect class="cls-1" x="77.545" y="78.14" width="199.537" height="141.484"/>
  <rect class="cls-2" x="97.799" y="128.378" width="159.029" height="70.13"/>
  <g>
    <path d="M228.815,418.4a4.249,4.249,0,0,0,2.367.828c.855,0,1.415-.309,1.415-.771,0-.378-.28-.589-.91-.686l-1.4-.21c-1.443-.225-2.213-.939-2.213-2.116,0-1.415,1.176-2.311,3.039-2.311a5.387,5.387,0,0,1,3,.91l-.925,1.233a4.307,4.307,0,0,0-2.255-.7c-.7,0-1.148.28-1.148.714,0,.393.28.589.994.687l1.4.21c1.429.21,2.227.952,2.227,2.087,0,1.373-1.359,2.409-3.194,2.409a5.378,5.378,0,0,1-3.347-1.008Z"/>
    <path d="M239.009,420.687a3.8,3.8,0,0,1-3.922-3.782,3.725,3.725,0,0,1,3.754-3.782,3.683,3.683,0,0,1,3.613,3.922v.5h-5.435a2.1,2.1,0,0,0,2.074,1.527,2.292,2.292,0,0,0,1.61-.589l1.261,1.15A4.375,4.375,0,0,1,239.009,420.687Zm-2-4.51h3.571a1.882,1.882,0,0,0-1.778-1.471A1.832,1.832,0,0,0,237.006,416.177Z"/>
    <path d="M243.627,413.249h1.919v.8a2.321,2.321,0,0,1,1.947-.966,1.653,1.653,0,0,1,.8.168v1.681a2.448,2.448,0,0,0-.98-.2,1.931,1.931,0,0,0-1.765,1.092v4.721h-1.919Z"/>
    <path d="M248.848,413.249h2.087l2,4.861,1.989-4.861h2.045l-3.137,7.3h-1.849Z"/>
    <path d="M261.031,420.687a3.8,3.8,0,0,1-3.922-3.782,3.725,3.725,0,0,1,3.754-3.782,3.683,3.683,0,0,1,3.613,3.922v.5h-5.434a2.1,2.1,0,0,0,2.073,1.527,2.292,2.292,0,0,0,1.61-.589l1.261,1.15A4.375,4.375,0,0,1,261.031,420.687Zm-2-4.51H262.6a1.882,1.882,0,0,0-1.778-1.471A1.831,1.831,0,0,0,259.028,416.177Z"/>
    <path d="M265.648,413.249h1.919v.8a2.323,2.323,0,0,1,1.947-.966,1.66,1.66,0,0,1,.8.168v1.681a2.457,2.457,0,0,0-.981-.2,1.932,1.932,0,0,0-1.765,1.092v4.721h-1.919Z"/>
    <path d="M271.978,419.553a1.142,1.142,0,1,1-1.149-1.15A1.151,1.151,0,0,1,271.978,419.553Z"/>
    <path d="M276.556,420.687a3.8,3.8,0,0,1-3.921-3.782,3.725,3.725,0,0,1,3.753-3.782A3.683,3.683,0,0,1,280,417.045v.5h-5.435a2.1,2.1,0,0,0,2.073,1.527,2.293,2.293,0,0,0,1.611-.589l1.261,1.15A4.378,4.378,0,0,1,276.556,420.687Zm-2-4.51h3.572a1.882,1.882,0,0,0-1.779-1.471A1.834,1.834,0,0,0,274.553,416.177Z"/>
    <path d="M282.646,416.835l-2.732-3.586h2.227l1.611,2.171,1.6-2.171h2.158l-2.69,3.558,2.858,3.74h-2.242l-1.723-2.325-1.722,2.325h-2.144Z"/>
    <path d="M287.769,418.432c0-1.387,1.12-2.213,3-2.213a5.9,5.9,0,0,1,1.779.28v-.518c0-.841-.518-1.275-1.54-1.275a5.66,5.66,0,0,0-2.228.6l-.7-1.414a7.6,7.6,0,0,1,3.25-.785c1.975,0,3.109.981,3.109,2.7v4.734h-1.891v-.5a3.468,3.468,0,0,1-2.115.63C288.862,420.673,287.769,419.763,287.769,418.432Zm3.165.868a2.755,2.755,0,0,0,1.611-.462v-1.093a4.259,4.259,0,0,0-1.54-.265c-.883,0-1.4.349-1.4.91S290.122,419.3,290.934,419.3Z"/>
    <path d="M295.888,413.249h1.919v.546a2.842,2.842,0,0,1,1.906-.686,2.62,2.62,0,0,1,2.2,1.092,3,3,0,0,1,2.409-1.092,2.723,2.723,0,0,1,2.788,2.9v4.538H305.19v-4.258a1.362,1.362,0,0,0-1.373-1.527,1.644,1.644,0,0,0-1.4.728,3.107,3.107,0,0,1,.043.519v4.538h-1.92v-4.258a1.362,1.362,0,0,0-1.372-1.527,1.633,1.633,0,0,0-1.36.658v5.127h-1.919Z"/>
    <path d="M308.573,413.249h1.891v.6a3.3,3.3,0,0,1,2.073-.7,3.747,3.747,0,0,1-.056,7.494,3.619,3.619,0,0,1-1.989-.575v3.405h-1.919Zm1.919,2.228v2.871a2.46,2.46,0,0,0,1.737.673,2.116,2.116,0,1,0,0-4.231A2.351,2.351,0,0,0,310.492,415.477Z"/>
    <path d="M319.34,420.547h-1.919v-9.806l1.919-.42Z"/>
    <path d="M324.423,420.687a3.8,3.8,0,0,1-3.922-3.782,3.725,3.725,0,0,1,3.754-3.782,3.683,3.683,0,0,1,3.613,3.922v.5h-5.435a2.1,2.1,0,0,0,2.074,1.527,2.292,2.292,0,0,0,1.61-.589l1.261,1.15A4.377,4.377,0,0,1,324.423,420.687Zm-2-4.51h3.571a1.882,1.882,0,0,0-1.778-1.471A1.831,1.831,0,0,0,322.42,416.177Z"/>
    <path d="M330.694,419.553a1.142,1.142,0,1,1-1.149-1.15A1.151,1.151,0,0,1,330.694,419.553Z"/>
    <path d="M337,418.194l1.148,1.19a4.049,4.049,0,0,1-2.969,1.3,3.789,3.789,0,1,1,0-7.578,4.1,4.1,0,0,1,3.025,1.3l-1.177,1.247a2.367,2.367,0,0,0-1.806-.882,2.12,2.12,0,0,0,.042,4.23A2.267,2.267,0,0,0,337,418.194Z"/>
    <path d="M342.413,413.109a3.79,3.79,0,1,1-3.9,3.8A3.8,3.8,0,0,1,342.413,413.109Zm2.016,3.8a2.019,2.019,0,1,0-2.016,2.116A2.044,2.044,0,0,0,344.429,416.905Z"/>
    <path d="M347.478,413.249H349.4v.546a2.841,2.841,0,0,1,1.905-.686,2.622,2.622,0,0,1,2.2,1.092,3,3,0,0,1,2.409-1.092,2.723,2.723,0,0,1,2.788,2.9v4.538H356.78v-4.258a1.362,1.362,0,0,0-1.373-1.527,1.644,1.644,0,0,0-1.4.728,3.107,3.107,0,0,1,.043.519v4.538h-1.92v-4.258a1.362,1.362,0,0,0-1.372-1.527,1.632,1.632,0,0,0-1.36.658v5.127h-1.919Z"/>
  </g>
  <g>
    <path d="M151.023,157.515h3.586a4.9,4.9,0,1,1,0,9.805h-3.586Zm1.68,1.457v6.891h1.948a3.461,3.461,0,0,0,0-6.891Z"/>
    <path d="M164.422,160.191a3.636,3.636,0,1,1-3.53,3.628A3.5,3.5,0,0,1,164.422,160.191Zm1.961,3.641a1.984,1.984,0,1,0-3.922,0,1.98,1.98,0,1,0,3.922,0Z"/>
    <path d="M168.55,160.3h1.723l1.947,5.127,1.947-5.127h1.667l-2.886,7.017h-1.527Z"/>
    <path d="M180,167.46a3.567,3.567,0,0,1-3.572-3.641,3.457,3.457,0,0,1,3.418-3.628,3.368,3.368,0,0,1,3.32,3.614v.391h-5.183a2.143,2.143,0,0,0,2.1,1.919,2.277,2.277,0,0,0,1.667-.658l1.036.967A4.054,4.054,0,0,1,180,167.46Zm-1.989-4.229h3.656a1.921,1.921,0,0,0-1.835-1.751A1.884,1.884,0,0,0,178.015,163.231Z"/>
    <path d="M189.833,165.289l.952.953a3.65,3.65,0,0,1-2.745,1.218,3.629,3.629,0,0,1,0-7.256,3.785,3.785,0,0,1,2.8,1.177l-.981,1.022a2.324,2.324,0,0,0-1.765-.826,2.252,2.252,0,0,0,.042,4.483A2.155,2.155,0,0,0,189.833,165.289Z"/>
    <path d="M195.138,160.191a3.636,3.636,0,1,1-3.53,3.628A3.5,3.5,0,0,1,195.138,160.191Zm1.961,3.641a1.984,1.984,0,1,0-3.922,0,1.98,1.98,0,1,0,3.922,0Z"/>
    <path d="M200.835,161.564H199.42V160.3h1.415v-1.934l1.582-.336v2.27h1.962v1.261h-1.962v3.557c0,.687.267.952.981.952a2.906,2.906,0,0,0,.952-.168v1.331a4.977,4.977,0,0,1-1.358.2c-1.415,0-2.157-.673-2.157-1.961Z"/>
  </g>
  <rect class="cls-1" x="318.193" y="78.14" width="199.537" height="141.484"/>
  <rect class="cls-2" x="338.448" y="128.378" width="159.029" height="70.13"/>
  <g>
    <path d="M395.759,157.515h4.384a3.042,3.042,0,1,1,0,6.065h-2.7v3.74h-1.68Zm1.68,1.415v3.278h2.438a1.65,1.65,0,1,0,.014-3.278Z"/>
    <path d="M407.9,160.191a3.636,3.636,0,1,1-3.53,3.628A3.5,3.5,0,0,1,407.9,160.191Zm1.961,3.641a1.984,1.984,0,1,0-3.922,0,1.98,1.98,0,1,0,3.922,0Z"/>
    <path d="M413.175,165.444a4.045,4.045,0,0,0,2.254.8c.841,0,1.415-.379,1.415-.939,0-.434-.293-.672-.966-.8l-1.246-.21c-1.36-.252-2.032-.883-2.032-1.934,0-1.316,1.078-2.17,2.718-2.17a4.939,4.939,0,0,1,2.759.84l-.742,1.037a3.84,3.84,0,0,0-2.116-.672c-.728,0-1.2.307-1.2.826,0,.448.252.644,1,.77l1.232.224c1.4.267,2.073.911,2.073,1.961,0,1.289-1.232,2.283-2.857,2.283a4.712,4.712,0,0,1-3.026-.952Z"/>
    <path d="M420.5,161.564h-1.415V160.3H420.5v-1.934l1.583-.336v2.27h1.961v1.261H422.08v3.557c0,.687.265.952.98.952a2.9,2.9,0,0,0,.952-.168v1.331a4.977,4.977,0,0,1-1.358.2c-1.415,0-2.157-.673-2.157-1.961Z"/>
    <path d="M426.516,160.3v-1.247a2.155,2.155,0,0,1,2.424-2.354,3.811,3.811,0,0,1,1.05.141v1.345a3.237,3.237,0,0,0-.84-.113c-.728,0-1.051.323-1.051,1.009V160.3h1.891v1.261H428.1v5.756h-1.583v-5.756H425V160.3Z"/>
    <path d="M431.122,157.907a.987.987,0,0,1,1.974,0,.987.987,0,0,1-1.974,0Zm1.779,9.413h-1.583V160.3H432.9Z"/>
    <path d="M436.667,163.748,434.1,160.3h1.849l1.64,2.31,1.638-2.31H441l-2.522,3.4,2.718,3.614h-1.863l-1.765-2.479L435.8,167.32h-1.766Z"/>
  </g>
  <g>
    <path d="M428.071,253.072a4.131,4.131,0,0,0,3.334,1.793c1.372,0,2.312-.686,2.312-1.68,0-.729-.5-1.149-1.738-1.457l-1.541-.407c-1.512-.391-2.283-1.218-2.283-2.422,0-1.766,1.387-2.872,3.572-2.872a5.907,5.907,0,0,1,4.006,1.611l-.925,1.051a4.624,4.624,0,0,0-3.207-1.429c-1.261,0-2.059.574-2.059,1.471,0,.672.462,1.091,1.541,1.372l1.485.364c1.764.435,2.576,1.233,2.576,2.508,0,1.89-1.511,3.123-3.838,3.123a5.237,5.237,0,0,1-4.244-2.059Z"/>
    <path d="M439.693,256.1a3.327,3.327,0,0,1-3.516-3.375,3.929,3.929,0,0,1,3.795-4.007,3.159,3.159,0,0,1,3.11,3.39,5.572,5.572,0,0,1-.041.728h-5.52a2.192,2.192,0,0,0,2.256,2.073,2.919,2.919,0,0,0,1.765-.56l.742.925A4.293,4.293,0,0,1,439.693,256.1Zm-2.059-4.3h4.16a1.952,1.952,0,0,0-1.919-1.891A2.424,2.424,0,0,0,437.634,251.8Z"/>
    <path d="M445.151,248.828h1.359l-.126.617a3.173,3.173,0,0,1,2.059-.743,2.259,2.259,0,0,1,2.3,2.97l-.91,4.286h-1.36l.87-4.132c.252-1.163-.323-1.919-1.415-1.919a2.408,2.408,0,0,0-1.822.84L445,255.958h-1.359Z"/>
    <path d="M456.857,255.524a3.358,3.358,0,0,1-1.849.546,3.156,3.156,0,0,1-3.152-3.292,3.991,3.991,0,0,1,3.937-4.047,3.29,3.29,0,0,1,2.31.881l.729-3.459,1.429-.308-2.144,10.113H456.76Zm-1.513-.659a2.655,2.655,0,0,0,1.779-.671l.7-3.292a2.352,2.352,0,0,0-1.976-.967,2.682,2.682,0,0,0-2.647,2.731A2.1,2.1,0,0,0,455.344,254.865Z"/>
    <path d="M464.933,246.153h7.075l-.267,1.289h-5.659l-.616,2.941h3.7l-.267,1.261h-3.7l-.645,3.025h5.7l-.28,1.289h-7.131Z"/>
    <path d="M472.829,248.828h1.358l-.139.658a2.921,2.921,0,0,1,1.974-.784,2.079,2.079,0,0,1,2.017,1.261,3.312,3.312,0,0,1,2.536-1.261c1.583,0,2.479,1.233,2.115,2.9l-.925,4.356h-1.358l.9-4.244c.224-1.064-.293-1.807-1.26-1.807a2.382,2.382,0,0,0-1.822.995,3.2,3.2,0,0,1-.069.7l-.925,4.356h-1.373l.883-4.174c.252-1.121-.253-1.877-1.247-1.877a2.251,2.251,0,0,0-1.723.882l-1.092,5.169h-1.359Z"/>
    <path d="M483.482,254.068c0-1.429,1.135-2.34,2.942-2.34a4.874,4.874,0,0,1,2.143.49l.14-.63q.357-1.722-1.6-1.724a5.573,5.573,0,0,0-2.073.5l-.364-1.064a7.08,7.08,0,0,1,2.7-.6c2.045,0,3.052,1.065,2.675,2.844l-.939,4.412h-1.345l.113-.518a3.348,3.348,0,0,1-1.961.616C484.435,256.056,483.482,255.272,483.482,254.068Zm2.844.952a2.991,2.991,0,0,0,1.765-.575l.266-1.232a3.221,3.221,0,0,0-1.877-.532c-1.009,0-1.695.517-1.695,1.26C484.785,254.613,485.359,255.02,486.326,255.02Z"/>
    <path d="M492.037,255.958h-1.36l1.514-7.13h1.358Zm.406-9.049a.983.983,0,0,1,.952-.966.756.756,0,0,1,.757.77.985.985,0,0,1-.953.967A.748.748,0,0,1,492.443,246.909Z"/>
    <path d="M495.047,255.958h-1.36l2.088-9.805,1.428-.308Z"/>
    <path d="M429.359,266.805h-1.484l.252-1.177h1.47l.393-1.821,1.443-.336-.463,2.157h2.045l-.252,1.177h-2.044l-.813,3.809c-.168.771.112,1.08.98,1.08a3.412,3.412,0,0,0,.855-.126l-.252,1.162a4.959,4.959,0,0,1-1.149.14c-1.456,0-2.115-.715-1.848-1.989Z"/>
    <path d="M436.754,265.488a3.321,3.321,0,0,1,3.4,3.4,4,4,0,0,1-3.894,4.006,3.324,3.324,0,0,1-3.4-3.417A3.99,3.99,0,0,1,436.754,265.488Zm2.058,3.474a2.127,2.127,0,0,0-2.115-2.241,2.619,2.619,0,0,0-2.493,2.689,2.122,2.122,0,0,0,2.115,2.255A2.631,2.631,0,0,0,438.812,268.962Z"/>
    <path d="M444.508,269.872a4.13,4.13,0,0,0,3.334,1.793c1.372,0,2.31-.686,2.31-1.68,0-.729-.5-1.149-1.736-1.457l-1.541-.407c-1.514-.391-2.283-1.218-2.283-2.423,0-1.765,1.386-2.872,3.571-2.872a5.908,5.908,0,0,1,4.007,1.612l-.925,1.05a4.631,4.631,0,0,0-3.208-1.428c-1.261,0-2.059.574-2.059,1.47,0,.672.462,1.092,1.541,1.373l1.485.364c1.764.434,2.577,1.232,2.577,2.508,0,1.89-1.513,3.123-3.838,3.123a5.233,5.233,0,0,1-4.244-2.059Z"/>
    <path d="M455.274,264.745l-1.694,8.013h-1.36l2.087-9.806h1.864l1.694,6.276,4.329-6.276h1.975l-2.087,9.806h-1.33l1.679-7.971-5.112,7.271Z"/>
    <path d="M465.381,262.952h8.18l-.28,1.3h-3.375l-1.808,8.5h-1.442l1.807-8.5h-3.375Z"/>
    <path d="M474.789,262.952h4.077a2.581,2.581,0,0,1,2.886,2.592,3.331,3.331,0,0,1-3.545,3.264h-3.236l-.84,3.95H472.7Zm1.149,1.289-.7,3.32h2.955a1.946,1.946,0,0,0,2.115-1.9c0-.882-.631-1.415-1.667-1.415Z"/>
    <path d="M485.106,270.755a3.237,3.237,0,0,0,2.353,1.051c.926,0,1.584-.448,1.584-1.079,0-.449-.309-.7-1-.855l-1.233-.28c-1.19-.266-1.779-.882-1.779-1.849,0-1.358,1.065-2.227,2.7-2.227a4.458,4.458,0,0,1,2.955,1.106l-.8.883a3.523,3.523,0,0,0-2.24-.91c-.841,0-1.387.391-1.387,1.008,0,.434.28.686,1.022.854l1.233.28c1.219.267,1.821.883,1.821,1.835,0,1.331-1.247,2.326-2.914,2.326a4.385,4.385,0,0,1-3.166-1.275Z"/>
    <path d="M494.908,272.9a3.327,3.327,0,0,1-3.516-3.375,3.929,3.929,0,0,1,3.8-4.007,3.159,3.159,0,0,1,3.11,3.389,5.446,5.446,0,0,1-.042.729h-5.52a2.193,2.193,0,0,0,2.256,2.073,2.922,2.922,0,0,0,1.766-.56l.742.924A4.288,4.288,0,0,1,494.908,272.9Zm-2.059-4.3h4.161a1.954,1.954,0,0,0-1.92-1.892A2.426,2.426,0,0,0,492.849,268.6Z"/>
    <path d="M500.352,265.628h1.359l-.168.813a2.6,2.6,0,0,1,1.989-.967,1.8,1.8,0,0,1,.8.154l-.252,1.261a1.885,1.885,0,0,0-.9-.2,2.328,2.328,0,0,0-1.947,1.176l-1.036,4.889H498.84Z"/>
    <path d="M504.859,265.628h1.457l1.051,5.337,3.306-5.337H512.2l-4.537,7.13h-1.318Z"/>
    <path d="M515.389,272.9a3.327,3.327,0,0,1-3.516-3.375,3.929,3.929,0,0,1,3.8-4.007,3.158,3.158,0,0,1,3.109,3.389,5.446,5.446,0,0,1-.042.729h-5.518a2.189,2.189,0,0,0,2.254,2.073,2.917,2.917,0,0,0,1.765-.56l.742.924A4.287,4.287,0,0,1,515.389,272.9Zm-2.059-4.3h4.16a1.951,1.951,0,0,0-1.918-1.892A2.427,2.427,0,0,0,513.33,268.6Z"/>
    <path d="M520.834,265.628h1.359l-.168.813a2.6,2.6,0,0,1,1.988-.967,1.8,1.8,0,0,1,.8.154l-.252,1.261a1.886,1.886,0,0,0-.9-.2,2.325,2.325,0,0,0-1.947,1.176l-1.038,4.889h-1.357Z"/>
  </g>
  <g>
    <polyline class="cls-3" points="417.962 207.104 417.962 359.99 377.152 359.99"/>
    <polygon points="412.976 208.563 417.961 199.928 422.948 208.563 412.976 208.563"/>
  </g>
  <g>
    <line class="cls-3" x1="155.927" y1="205.684" x2="155.927" y2="207.184"/>
    <line class="cls-4" x1="155.927" y1="210.193" x2="155.927" y2="371.189"/>
    <polyline class="cls-3" points="155.927 372.693 155.927 374.193 157.427 374.193"/>
    <line class="cls-5" x1="160.3" y1="374.193" x2="216.322" y2="374.193"/>
    <line class="cls-3" x1="217.758" y1="374.193" x2="219.258" y2="374.193"/>
    <polygon points="150.942 207.143 155.927 198.508 160.913 207.143 150.942 207.143"/>
  </g>
  <g>
    <polyline class="cls-3" points="177.585 199.928 177.585 352.794 210.01 352.794"/>
    <polygon points="208.551 357.78 217.185 352.795 208.551 347.809 208.551 357.78"/>
  </g>
  <g>
    <g>
      <rect class="cls-6" x="219.123" y="326.49" width="157.029" height="68.13"/>
      <path class="cls-7" d="M375.152,327.49v66.13H220.123V327.49H375.152m2-2H218.123v70.13H377.152V325.49Z"/>
    </g>
    <g>
      <path d="M265.789,376.566v7.69h-1.554V374.45h2.185l2.871,5.94,2.858-5.94h2.185v9.806h-1.583v-7.648l-3.474,6.948Z"/>
      <path d="M276.008,382.238c0-1.259,1.023-2.058,2.675-2.058a4.336,4.336,0,0,1,1.891.434v-.77c0-.925-.532-1.4-1.61-1.4a4.853,4.853,0,0,0-2.045.546l-.561-1.148a6.744,6.744,0,0,1,2.914-.715c1.821,0,2.871.925,2.871,2.55v4.58h-1.569v-.715a2.925,2.925,0,0,1-2.086.827A2.213,2.213,0,0,1,276.008,382.238Zm2.914,1.024a2.507,2.507,0,0,0,1.652-.574v-1.15a3.631,3.631,0,0,0-1.625-.336c-.9,0-1.456.393-1.456,1.009C277.493,382.856,278.053,383.262,278.922,383.262Z"/>
      <path d="M283.862,374.843a.988.988,0,0,1,1.975,0,.988.988,0,0,1-1.975,0Zm1.779,9.413h-1.583v-7.018h1.583Z"/>
      <path d="M289.169,384.256h-1.583V374.24l1.583-.265Z"/>
      <path d="M301.744,381.609l1.107,1.064a5.032,5.032,0,1,1,.042-6.64l-1.134,1.121a3.45,3.45,0,1,0-2.634,5.729A3.324,3.324,0,0,0,301.744,381.609Z"/>
      <path d="M305.969,384.256h-1.583V374.24l1.583-.265Z"/>
      <path d="M307.718,374.843a.988.988,0,0,1,1.975,0,.988.988,0,0,1-1.975,0Zm1.779,9.413h-1.583v-7.018H309.5Z"/>
      <path d="M314.692,384.4a3.567,3.567,0,0,1-3.572-3.642,3.457,3.457,0,0,1,3.418-3.628,3.369,3.369,0,0,1,3.32,3.614v.392h-5.182a2.142,2.142,0,0,0,2.1,1.919,2.277,2.277,0,0,0,1.667-.658l1.036.967A4.057,4.057,0,0,1,314.692,384.4Zm-1.989-4.23h3.656a1.92,1.92,0,0,0-1.835-1.751A1.887,1.887,0,0,0,312.7,380.166Z"/>
      <path d="M319.465,377.238h1.583v1.149a2.546,2.546,0,0,1,2.226-1.261,2.362,2.362,0,0,1,2.424,2.508v4.622h-1.583v-4.174a1.512,1.512,0,0,0-1.541-1.681,1.8,1.8,0,0,0-1.526.84v5.015h-1.583Z"/>
      <path d="M328.27,378.5h-1.415v-1.261h1.415v-1.933l1.583-.336v2.269h1.961V378.5h-1.961v3.558c0,.686.266.952.981.952a2.906,2.906,0,0,0,.952-.168v1.331a4.983,4.983,0,0,1-1.359.2c-1.415,0-2.157-.673-2.157-1.961Z"/>
    </g>
    <g>
      <rect class="cls-8" x="262.293" y="341.234" width="70.69" height="17.672"/>
      <line class="cls-9" x1="325.426" y1="348.813" x2="325.426" y2="348.813"/>
      <line class="cls-10" x1="270.95" y1="351.333" x2="281.553" y2="351.333"/>
    </g>
    <g>
      <rect class="cls-6" x="322.791" y="352.794" width="18.467" height="14.656"/>
      <path class="cls-11" d="M324.247,355.229v9.523l5.046-4.73Zm14.587-.766H325l6.919,6.574Zm-6.551,7.7a.535.535,0,0,1-.737,0l-1.477-1.4-5.667,5.314a.533.533,0,0,0,.38.159h14.265a.533.533,0,0,0,.38-.159l-5.667-5.314Zm2.253-2.14,5.046,4.73v-9.523Z"/>
    </g>
  </g>
  <g>
    <path d="M76.071,252.194h7.1l-.28,1.289H77.22l-.63,3.011h3.726l-.266,1.261H76.309l-.9,4.244H73.984Z"/>
    <path d="M85.214,262.139a3.327,3.327,0,0,1-3.516-3.375,3.929,3.929,0,0,1,3.8-4.007,3.159,3.159,0,0,1,3.11,3.39,5.441,5.441,0,0,1-.042.728H83.043a2.191,2.191,0,0,0,2.255,2.073,2.917,2.917,0,0,0,1.765-.56l.742.925A4.293,4.293,0,0,1,85.214,262.139Zm-2.059-4.3h4.16a1.952,1.952,0,0,0-1.919-1.891A2.425,2.425,0,0,0,83.155,257.839Z"/>
    <path d="M90.981,256.046H89.5l.253-1.177h1.47l.393-1.821,1.442-.336-.462,2.157h2.045l-.252,1.177H92.34l-.812,3.81c-.168.77.112,1.079.98,1.079a3.412,3.412,0,0,0,.855-.126l-.252,1.162a4.973,4.973,0,0,1-1.149.14c-1.457,0-2.115-.714-1.849-1.989Z"/>
    <path d="M99.734,260.164l.686.952a4.2,4.2,0,0,1-2.7,1.023,3.191,3.191,0,0,1-3.278-3.291,4.063,4.063,0,0,1,3.95-4.105,3.492,3.492,0,0,1,2.815,1.4l-.966.883a2.258,2.258,0,0,0-1.891-1.037,2.707,2.707,0,0,0-2.536,2.788,2.044,2.044,0,0,0,2.059,2.128A2.884,2.884,0,0,0,99.734,260.164Z"/>
    <path d="M103.273,252.194l1.429-.308-.771,3.586a3.27,3.27,0,0,1,2.059-.729,2.259,2.259,0,0,1,2.3,2.97L107.377,262h-1.358l.868-4.132c.252-1.163-.322-1.919-1.415-1.919a2.427,2.427,0,0,0-1.821.84L102.545,262h-1.359Z"/>
    <path d="M114.151,252.194h7.074l-.266,1.289H115.3l-.616,2.941h3.7l-.267,1.261h-3.7l-.645,3.025h5.7l-.28,1.289h-7.13Z"/>
    <path d="M122.047,254.869h1.359l-.141.659a2.92,2.92,0,0,1,1.975-.785A2.081,2.081,0,0,1,127.258,256a3.308,3.308,0,0,1,2.535-1.261c1.583,0,2.48,1.233,2.115,2.9L130.984,262h-1.359l.9-4.244c.224-1.064-.295-1.807-1.261-1.807a2.375,2.375,0,0,0-1.821.995,3.2,3.2,0,0,1-.07.7L126.446,262h-1.373l.882-4.174c.252-1.121-.252-1.877-1.247-1.877a2.25,2.25,0,0,0-1.722.882L121.893,262h-1.359Z"/>
    <path d="M132.7,260.109c0-1.429,1.135-2.34,2.941-2.34a4.878,4.878,0,0,1,2.144.49l.14-.63q.357-1.722-1.6-1.724a5.569,5.569,0,0,0-2.073.505l-.365-1.064a7.087,7.087,0,0,1,2.7-.6c2.045,0,3.054,1.065,2.675,2.844L138.331,262h-1.345l.112-.518a3.346,3.346,0,0,1-1.961.616C133.653,262.1,132.7,261.313,132.7,260.109Zm2.844.952a2.985,2.985,0,0,0,1.764-.575l.266-1.232a3.216,3.216,0,0,0-1.876-.532c-1.009,0-1.7.517-1.7,1.26C134,260.654,134.577,261.061,135.544,261.061Z"/>
    <path d="M141.255,262H139.9l1.513-7.13h1.358Zm.406-9.049a.984.984,0,0,1,.953-.966.757.757,0,0,1,.756.77.984.984,0,0,1-.953.967A.748.748,0,0,1,141.661,252.95Z"/>
    <path d="M144.264,262h-1.358l2.087-9.805,1.429-.308Z"/>
    <path d="M38.1,271.669l.266-1.232a2.468,2.468,0,0,1,2.592-2.144,3.041,3.041,0,0,1,1.176.21l-.238,1.205a2.356,2.356,0,0,0-.952-.182,1.121,1.121,0,0,0-1.233,1.037l-.238,1.106h2l-.252,1.177h-2L37.964,278.8H36.592l1.26-5.953h-1.6l.253-1.177Z"/>
    <path d="M42.528,271.669h1.358l-.168.813a2.6,2.6,0,0,1,1.989-.967,1.8,1.8,0,0,1,.8.154l-.252,1.261a1.893,1.893,0,0,0-.9-.2,2.326,2.326,0,0,0-1.947,1.176L42.373,278.8H41.015Z"/>
    <path d="M50.271,271.529a3.321,3.321,0,0,1,3.4,3.4,4,4,0,0,1-3.894,4.006,3.324,3.324,0,0,1-3.4-3.417A3.989,3.989,0,0,1,50.271,271.529ZM52.33,275a2.127,2.127,0,0,0-2.115-2.241,2.619,2.619,0,0,0-2.493,2.689,2.122,2.122,0,0,0,2.115,2.255A2.63,2.63,0,0,0,52.33,275Z"/>
    <path d="M55.744,271.669H57.1l-.139.658a2.92,2.92,0,0,1,1.974-.784,2.077,2.077,0,0,1,2.017,1.261,3.31,3.31,0,0,1,2.536-1.261c1.583,0,2.479,1.233,2.115,2.9L64.68,278.8H63.322l.9-4.244c.224-1.065-.295-1.808-1.261-1.808a2.382,2.382,0,0,0-1.822,1,3.206,3.206,0,0,1-.069.7l-.925,4.356H58.769l.883-4.174c.252-1.121-.252-1.878-1.247-1.878a2.253,2.253,0,0,0-1.723.883L55.59,278.8H54.231Z"/>
    <path d="M71.451,268.993h1.43L70.793,278.8H69.365Z"/>
    <path d="M75.821,270.786,74.126,278.8H72.767l2.087-9.806h1.863l1.7,6.276,4.328-6.276h1.975L82.628,278.8H81.3l1.68-7.971L77.865,278.1Z"/>
    <path d="M89.626,268.993h1.708l1.891,9.806h-1.5l-.519-2.871h-4.3L85.2,278.8H83.616Zm1.358,5.716-.77-4.314-2.578,4.314Z"/>
    <path d="M96.287,268.993h4.077a2.58,2.58,0,0,1,2.885,2.592,3.329,3.329,0,0,1-3.544,3.264H96.469l-.84,3.95H94.2Zm1.149,1.289-.7,3.32h2.955a1.946,1.946,0,0,0,2.115-1.9c0-.882-.63-1.415-1.667-1.415Z"/>
    <path d="M106.605,276.8a3.234,3.234,0,0,0,2.353,1.051c.925,0,1.583-.448,1.583-1.079,0-.448-.308-.7-.995-.855l-1.232-.28c-1.191-.266-1.779-.882-1.779-1.849,0-1.358,1.064-2.227,2.7-2.227a4.461,4.461,0,0,1,2.956,1.106l-.8.883a3.525,3.525,0,0,0-2.241-.91c-.84,0-1.387.392-1.387,1.008,0,.434.281.686,1.023.854l1.233.28c1.218.267,1.821.883,1.821,1.835,0,1.332-1.247,2.326-2.914,2.326a4.385,4.385,0,0,1-3.166-1.275Z"/>
    <path d="M116.406,278.939a3.327,3.327,0,0,1-3.516-3.375,3.929,3.929,0,0,1,3.8-4.007,3.159,3.159,0,0,1,3.11,3.389,5.446,5.446,0,0,1-.042.729h-5.519a2.191,2.191,0,0,0,2.255,2.073,2.917,2.917,0,0,0,1.765-.56l.742.924A4.287,4.287,0,0,1,116.406,278.939Zm-2.059-4.3h4.16a1.952,1.952,0,0,0-1.919-1.892A2.426,2.426,0,0,0,114.347,274.639Z"/>
    <path d="M121.851,271.669h1.359l-.169.813a2.6,2.6,0,0,1,1.99-.967,1.8,1.8,0,0,1,.8.154l-.252,1.261a1.888,1.888,0,0,0-.9-.2,2.327,2.327,0,0,0-1.947,1.176L121.7,278.8h-1.359Z"/>
    <path d="M126.358,271.669h1.457l1.05,5.337,3.307-5.337H133.7l-4.538,7.13h-1.317Z"/>
    <path d="M136.888,278.939a3.327,3.327,0,0,1-3.516-3.375,3.929,3.929,0,0,1,3.8-4.007,3.159,3.159,0,0,1,3.11,3.389,5.446,5.446,0,0,1-.042.729h-5.519a2.191,2.191,0,0,0,2.255,2.073,2.917,2.917,0,0,0,1.765-.56l.742.924A4.287,4.287,0,0,1,136.888,278.939Zm-2.059-4.3h4.16a1.952,1.952,0,0,0-1.919-1.892A2.426,2.426,0,0,0,134.829,274.639Z"/>
    <path d="M142.333,271.669h1.359l-.169.813a2.6,2.6,0,0,1,1.989-.967,1.8,1.8,0,0,1,.8.154l-.252,1.261a1.888,1.888,0,0,0-.9-.2,2.326,2.326,0,0,0-1.947,1.176l-1.037,4.889H140.82Z"/>
  </g>
  <g>
    <line class="cls-3" x1="177.314" y1="37.785" x2="177.314" y2="121.202"/>
    <polygon points="172.328 119.743 177.313 128.378 182.3 119.743 172.328 119.743"/>
  </g>
  <g>
    <line class="cls-3" x1="417.962" y1="44.961" x2="417.962" y2="128.378"/>
    <polygon points="412.976 46.42 417.962 37.785 422.948 46.42 412.976 46.42"/>
  </g>
  <rect class="cls-1" x="402.174" y="87.584" width="34.185" height="18.888"/>
  <rect class="cls-1" x="159.803" y="87.584" width="34.185" height="18.888"/>
  <g>
    <path d="M357.049,97.574a4.244,4.244,0,0,0,2.367.828c.854,0,1.415-.309,1.415-.771,0-.378-.28-.589-.91-.686l-1.4-.21c-1.442-.225-2.213-.939-2.213-2.116,0-1.415,1.177-2.311,3.039-2.311a5.388,5.388,0,0,1,3,.91l-.925,1.233a4.309,4.309,0,0,0-2.255-.7c-.7,0-1.149.279-1.149.714,0,.393.281.589,1,.687l1.4.209c1.429.21,2.226.953,2.226,2.087,0,1.373-1.358,2.41-3.193,2.41A5.381,5.381,0,0,1,356.1,98.85Z"/>
    <path d="M363.587,92.42h1.919v.546a2.838,2.838,0,0,1,1.905-.687,2.621,2.621,0,0,1,2.2,1.093,3,3,0,0,1,2.409-1.093,2.723,2.723,0,0,1,2.787,2.9v4.538h-1.919V95.46a1.362,1.362,0,0,0-1.373-1.527,1.643,1.643,0,0,0-1.4.728,3.108,3.108,0,0,1,.042.519v4.538h-1.919V95.46a1.362,1.362,0,0,0-1.373-1.527,1.628,1.628,0,0,0-1.358.658v5.127h-1.919Z"/>
    <path d="M376.985,94.03h-1.5V92.42h1.5V90.557l1.919-.434v2.3h2.073v1.61H378.9v3.237c0,.686.266.938,1.009.938a2.958,2.958,0,0,0,1.022-.168v1.569a5.951,5.951,0,0,1-1.485.224c-1.625,0-2.465-.742-2.465-2.172Z"/>
    <path d="M381.927,92.42h1.89v.6a3.308,3.308,0,0,1,2.073-.7,3.748,3.748,0,0,1-.055,7.5,3.624,3.624,0,0,1-1.99-.575v3.405h-1.918Zm1.918,2.228v2.871a2.46,2.46,0,0,0,1.738.673,2.116,2.116,0,1,0,0-4.231A2.353,2.353,0,0,0,383.845,94.648Z"/>
    <path d="M392.54,98.724a1.142,1.142,0,1,1-1.15-1.15A1.151,1.151,0,0,1,392.54,98.724Z"/>
    <path d="M397.119,99.858a3.8,3.8,0,0,1-3.922-3.782,3.725,3.725,0,0,1,3.754-3.782,3.683,3.683,0,0,1,3.613,3.922v.5H395.13a2.1,2.1,0,0,0,2.073,1.527,2.291,2.291,0,0,0,1.61-.589l1.261,1.15A4.377,4.377,0,0,1,397.119,99.858Zm-2-4.51h3.571a1.882,1.882,0,0,0-1.778-1.471A1.831,1.831,0,0,0,395.116,95.348Z"/>
    <path d="M403.208,96.006l-2.732-3.586H402.7l1.611,2.171,1.6-2.171h2.157l-2.689,3.558,2.857,3.74H406l-1.723-2.325-1.722,2.325h-2.144Z"/>
    <path d="M408.331,97.6c0-1.387,1.12-2.213,3-2.213a5.874,5.874,0,0,1,1.779.28v-.518c0-.841-.518-1.275-1.541-1.275a5.639,5.639,0,0,0-2.227.6l-.7-1.414a7.607,7.607,0,0,1,3.25-.786c1.975,0,3.11.982,3.11,2.7v4.734h-1.891v-.5a3.468,3.468,0,0,1-2.115.63C409.424,99.844,408.331,98.934,408.331,97.6Zm3.165.868a2.755,2.755,0,0,0,1.611-.462V96.916a4.261,4.261,0,0,0-1.541-.265c-.883,0-1.4.349-1.4.91S410.683,98.471,411.5,98.471Z"/>
    <path d="M416.451,92.42h1.919v.546a2.838,2.838,0,0,1,1.9-.687,2.62,2.62,0,0,1,2.2,1.093,3,3,0,0,1,2.41-1.093,2.724,2.724,0,0,1,2.787,2.9v4.538h-1.919V95.46a1.362,1.362,0,0,0-1.373-1.527,1.644,1.644,0,0,0-1.4.728,3.006,3.006,0,0,1,.042.519v4.538H421.1V95.46a1.362,1.362,0,0,0-1.373-1.527,1.628,1.628,0,0,0-1.358.658v5.127h-1.919Z"/>
    <path d="M429.135,92.42h1.89v.6a3.308,3.308,0,0,1,2.073-.7,3.748,3.748,0,0,1-.055,7.5,3.624,3.624,0,0,1-1.99-.575v3.405h-1.918Zm1.918,2.228v2.871a2.46,2.46,0,0,0,1.738.673,2.116,2.116,0,1,0,0-4.231A2.353,2.353,0,0,0,431.053,94.648Z"/>
    <path d="M439.9,99.718h-1.919V89.912l1.919-.42Z"/>
    <path d="M444.984,99.858a3.8,3.8,0,0,1-3.922-3.782,3.725,3.725,0,0,1,3.754-3.782,3.683,3.683,0,0,1,3.613,3.922v.5H443a2.1,2.1,0,0,0,2.073,1.527,2.289,2.289,0,0,0,1.61-.589l1.261,1.15A4.375,4.375,0,0,1,444.984,99.858Zm-2-4.51h3.571a1.882,1.882,0,0,0-1.778-1.471A1.832,1.832,0,0,0,442.981,95.348Z"/>
    <path d="M451.256,98.724a1.142,1.142,0,1,1-1.15-1.15A1.151,1.151,0,0,1,451.256,98.724Z"/>
    <path d="M457.557,97.364l1.149,1.191a4.052,4.052,0,0,1-2.97,1.3,3.79,3.79,0,1,1,0-7.579,4.1,4.1,0,0,1,3.025,1.3l-1.176,1.247a2.37,2.37,0,0,0-1.807-.883,2.12,2.12,0,0,0,.042,4.231A2.263,2.263,0,0,0,457.557,97.364Z"/>
    <path d="M462.974,92.279a3.791,3.791,0,1,1-3.893,3.8A3.8,3.8,0,0,1,462.974,92.279Zm2.018,3.8a2.019,2.019,0,1,0-2.018,2.116A2.046,2.046,0,0,0,464.992,96.076Z"/>
    <path d="M468.041,92.42h1.919v.546a2.838,2.838,0,0,1,1.905-.687,2.621,2.621,0,0,1,2.2,1.093,3,3,0,0,1,2.409-1.093,2.724,2.724,0,0,1,2.788,2.9v4.538h-1.919V95.46a1.362,1.362,0,0,0-1.373-1.527,1.644,1.644,0,0,0-1.4.728,3.108,3.108,0,0,1,.042.519v4.538h-1.919V95.46a1.362,1.362,0,0,0-1.373-1.527,1.628,1.628,0,0,0-1.358.658v5.127h-1.919Z"/>
  </g>
  <g>
    <path d="M116.6,90.459a1.093,1.093,0,1,1,1.093,1.093A1.094,1.094,0,0,1,116.6,90.459Zm2.059,9.259h-1.919v-7.3h1.919Z"/>
    <path d="M120.152,92.42h1.919v.546a2.842,2.842,0,0,1,1.905-.687,2.623,2.623,0,0,1,2.2,1.093,3,3,0,0,1,2.409-1.093,2.724,2.724,0,0,1,2.787,2.9v4.538h-1.919V95.46a1.362,1.362,0,0,0-1.373-1.527,1.642,1.642,0,0,0-1.4.728,3.108,3.108,0,0,1,.042.519v4.538H124.8V95.46a1.362,1.362,0,0,0-1.372-1.527,1.63,1.63,0,0,0-1.359.658v5.127h-1.919Z"/>
    <path d="M132.486,97.6c0-1.387,1.12-2.213,3-2.213a5.869,5.869,0,0,1,1.779.28v-.518c0-.841-.518-1.275-1.541-1.275a5.643,5.643,0,0,0-2.227.6l-.7-1.414a7.6,7.6,0,0,1,3.25-.786c1.975,0,3.109.982,3.109,2.7v4.734h-1.891v-.5a3.468,3.468,0,0,1-2.115.63C133.578,99.844,132.486,98.934,132.486,97.6Zm3.165.868a2.755,2.755,0,0,0,1.611-.462V96.916a4.261,4.261,0,0,0-1.541-.265c-.882,0-1.4.349-1.4.91S134.839,98.471,135.651,98.471Z"/>
    <path d="M140.606,92.42H142.5v.6a3.306,3.306,0,0,1,2.073-.7,3.748,3.748,0,0,1-.056,7.5,3.621,3.621,0,0,1-1.989-.575v3.405h-1.919Zm1.919,2.228v2.871a2.458,2.458,0,0,0,1.737.673,2.116,2.116,0,1,0,0-4.231A2.35,2.35,0,0,0,142.525,94.648Z"/>
    <path d="M151.219,98.724a1.142,1.142,0,1,1-1.148-1.15A1.151,1.151,0,0,1,151.219,98.724Z"/>
    <path d="M155.8,99.858a3.8,3.8,0,0,1-3.922-3.782,3.725,3.725,0,0,1,3.754-3.782,3.683,3.683,0,0,1,3.613,3.922v.5h-5.434a2.1,2.1,0,0,0,2.073,1.527,2.292,2.292,0,0,0,1.61-.589l1.261,1.15A4.375,4.375,0,0,1,155.8,99.858Zm-2-4.51h3.571a1.882,1.882,0,0,0-1.778-1.471A1.831,1.831,0,0,0,153.795,95.348Z"/>
    <path d="M161.887,96.006l-2.731-3.586h2.227l1.61,2.171,1.6-2.171h2.157l-2.69,3.558,2.858,3.74h-2.241l-1.724-2.325-1.722,2.325h-2.143Z"/>
    <path d="M167.01,97.6c0-1.387,1.121-2.213,3-2.213a5.868,5.868,0,0,1,1.778.28v-.518c0-.841-.518-1.275-1.54-1.275a5.643,5.643,0,0,0-2.228.6l-.7-1.414a7.6,7.6,0,0,1,3.25-.786c1.975,0,3.109.982,3.109,2.7v4.734h-1.891v-.5a3.467,3.467,0,0,1-2.114.63C168.1,99.844,167.01,98.934,167.01,97.6Zm3.166.868a2.754,2.754,0,0,0,1.61-.462V96.916a4.259,4.259,0,0,0-1.54-.265c-.883,0-1.4.349-1.4.91S169.363,98.471,170.176,98.471Z"/>
    <path d="M175.13,92.42h1.919v.546a2.842,2.842,0,0,1,1.905-.687,2.623,2.623,0,0,1,2.2,1.093,3,3,0,0,1,2.409-1.093,2.724,2.724,0,0,1,2.787,2.9v4.538h-1.919V95.46a1.362,1.362,0,0,0-1.373-1.527,1.645,1.645,0,0,0-1.4.728,3,3,0,0,1,.043.519v4.538h-1.919V95.46a1.362,1.362,0,0,0-1.373-1.527,1.631,1.631,0,0,0-1.359.658v5.127H175.13Z"/>
    <path d="M187.814,92.42h1.891v.6a3.306,3.306,0,0,1,2.073-.7,3.748,3.748,0,0,1-.056,7.5,3.621,3.621,0,0,1-1.989-.575v3.405h-1.919Zm1.919,2.228v2.871a2.458,2.458,0,0,0,1.737.673,2.116,2.116,0,1,0,0-4.231A2.35,2.35,0,0,0,189.733,94.648Z"/>
    <path d="M198.581,99.718h-1.919V89.912l1.919-.42Z"/>
    <path d="M203.663,99.858a3.8,3.8,0,0,1-3.922-3.782,3.725,3.725,0,0,1,3.754-3.782,3.683,3.683,0,0,1,3.614,3.922v.5h-5.435a2.1,2.1,0,0,0,2.073,1.527,2.293,2.293,0,0,0,1.611-.589l1.261,1.15A4.378,4.378,0,0,1,203.663,99.858Zm-2-4.51h3.572a1.882,1.882,0,0,0-1.779-1.471A1.834,1.834,0,0,0,201.66,95.348Z"/>
    <path d="M209.935,98.724a1.142,1.142,0,1,1-1.149-1.15A1.151,1.151,0,0,1,209.935,98.724Z"/>
    <path d="M216.237,97.364l1.148,1.191a4.048,4.048,0,0,1-2.97,1.3,3.79,3.79,0,1,1,0-7.579,4.106,4.106,0,0,1,3.026,1.3l-1.177,1.247a2.369,2.369,0,0,0-1.807-.883,2.12,2.12,0,0,0,.042,4.231A2.265,2.265,0,0,0,216.237,97.364Z"/>
    <path d="M221.654,92.279a3.791,3.791,0,1,1-3.894,3.8A3.8,3.8,0,0,1,221.654,92.279Zm2.017,3.8a2.019,2.019,0,1,0-2.017,2.116A2.045,2.045,0,0,0,223.671,96.076Z"/>
    <path d="M226.719,92.42h1.919v.546a2.843,2.843,0,0,1,1.906-.687,2.621,2.621,0,0,1,2.2,1.093,3,3,0,0,1,2.409-1.093,2.724,2.724,0,0,1,2.788,2.9v4.538h-1.919V95.46a1.362,1.362,0,0,0-1.373-1.527,1.643,1.643,0,0,0-1.4.728,3.108,3.108,0,0,1,.042.519v4.538H231.37V95.46A1.362,1.362,0,0,0,230,93.933a1.631,1.631,0,0,0-1.359.658v5.127h-1.919Z"/>
  </g>
</svg>
