<?xml version="1.0" encoding="UTF-8" standalone="no"?>
<svg
   xmlns:dc="http://purl.org/dc/elements/1.1/"
   xmlns:cc="http://creativecommons.org/ns#"
   xmlns:rdf="http://www.w3.org/1999/02/22-rdf-syntax-ns#"
   xmlns:svg="http://www.w3.org/2000/svg"
   xmlns="http://www.w3.org/2000/svg"
   xmlns:sodipodi="http://sodipodi.sourceforge.net/DTD/sodipodi-0.dtd"
   xmlns:inkscape="http://www.inkscape.org/namespaces/inkscape"
   id="bc4c2c0b-f369-4b87-895e-27a09797a9e7"
   data-name="Layer 1"
   width="270.515mm"
   height="88.247mm"
   viewBox="0 0 766.814 250.15"
   version="1.1"
   sodipodi:docname="optimizeweb-varnish_Hit-01.svg"
   inkscape:version="0.92.2 5c3e80d, 2017-08-06">
  <metadata
     id="metadata180">
    <rdf:RDF>
      <cc:Work
         rdf:about="">
        <dc:format>image/svg+xml</dc:format>
        <dc:type
           rdf:resource="http://purl.org/dc/dcmitype/StillImage" />
        <dc:title>optimizeweb-varnish</dc:title>
        <dc:subject>
          <rdf:Bag>
            <rdf:li>varnish</rdf:li>
            <rdf:li>cache hit</rdf:li>
            <rdf:li>cache miss</rdf:li>
          </rdf:Bag>
        </dc:subject>
      </cc:Work>
    </rdf:RDF>
  </metadata>
  <sodipodi:namedview
     pagecolor="#ffffff"
     bordercolor="#666666"
     borderopacity="1"
     objecttolerance="10"
     gridtolerance="10"
     guidetolerance="10"
     inkscape:pageopacity="0"
     inkscape:pageshadow="2"
     inkscape:window-width="738"
     inkscape:window-height="480"
     id="namedview178"
     showgrid="false"
     inkscape:zoom="0.31689553"
     inkscape:cx="511.20948"
     inkscape:cy="166.76599"
     inkscape:window-x="0"
     inkscape:window-y="0"
     inkscape:window-maximized="0"
     inkscape:current-layer="bc4c2c0b-f369-4b87-895e-27a09797a9e7" />
  <defs
     id="defs4">
    <style
       id="style2">
      .e4980b56-5ac1-4cda-a895-6c64d7913135 {
        fill: #e6e6e6;
      }

      .a53ca027-5c0f-42ea-b363-730f0b316395, .b0745f14-8095-4268-92aa-214a1e196902 {
        fill: #fff;
      }

      .ab2e00ef-9f06-4ef1-abd7-f1008a330d40 {
        fill: #b4b4b4;
      }

      .a9971e00-a234-428a-97fc-a7a1efe77b51 {
        fill: #151515;
      }

      .ab70b589-bf80-4ce0-8ef9-ee5153ef94eb, .b0745f14-8095-4268-92aa-214a1e196902, .b2aa5c9f-4159-4b39-847c-62376974edda {
        stroke: #5b5b5b;
        stroke-linecap: round;
        stroke-linejoin: round;
      }

      .b0745f14-8095-4268-92aa-214a1e196902, .b2aa5c9f-4159-4b39-847c-62376974edda {
        stroke-width: 1.5px;
      }

      .ab70b589-bf80-4ce0-8ef9-ee5153ef94eb, .b2aa5c9f-4159-4b39-847c-62376974edda, .b667e18e-b62b-4d67-b023-3167352c367b {
        fill: none;
      }

      .ab70b589-bf80-4ce0-8ef9-ee5153ef94eb {
        stroke-width: 2px;
      }

      .b667e18e-b62b-4d67-b023-3167352c367b {
        stroke: #06c;
        stroke-miterlimit: 10;
      }

      .eae4e48b-307e-42b9-901d-582bd7278fd9 {
        fill: #06c;
      }

      .f1b44c17-abc3-45b9-8d54-41d71d382bee {
        fill: #5b5b5b;
      }

      .f3afa751-580c-4a76-ad1f-bcd78317a4bf {
        fill: #017bc5;
      }

      .b996e9e4-db23-4240-b8d8-9f7aabad09f6 {
        fill: #090b0c;
      }
    </style>
  </defs>
  <title
     id="title6">optimizeweb-varnish</title>
  <g
     id="g175">
    <rect
       class="e4980b56-5ac1-4cda-a895-6c64d7913135"
       x="20.299"
       y="15.706"
       width="726.216"
       height="218.737"
       id="rect8" />
    <g
       id="g14">
      <rect
         class="a53ca027-5c0f-42ea-b363-730f0b316395"
         x="37.512"
         y="55.703"
         width="161.821"
         height="104.105"
         id="rect10" />
      <path
         class="ab2e00ef-9f06-4ef1-abd7-f1008a330d40"
         d="M198.834,56.2V159.308H38.012V56.2H198.834m1-1H37.012V160.308H199.834V55.2Z"
         id="path12" />
    </g>
    <g
       id="g20">
      <rect
         class="a53ca027-5c0f-42ea-b363-730f0b316395"
         x="302.496"
         y="55.703"
         width="161.821"
         height="104.105"
         id="rect16" />
      <path
         class="ab2e00ef-9f06-4ef1-abd7-f1008a330d40"
         d="M463.818,56.2V159.308H303V56.2H463.818m1-1H302V160.308H464.818V55.2Z"
         id="path18" />
    </g>
    <g
       id="g26">
      <rect
         class="a53ca027-5c0f-42ea-b363-730f0b316395"
         x="567.481"
         y="55.703"
         width="161.821"
         height="104.105"
         id="rect22" />
      <path
         class="ab2e00ef-9f06-4ef1-abd7-f1008a330d40"
         d="M728.8,56.2V159.308H567.981V56.2H728.8m1-1H566.981V160.308H729.8V55.2Z"
         id="path24" />
    </g>
    <g
       id="g40">
      <path
         class="a9971e00-a234-428a-97fc-a7a1efe77b51"
         d="M108.1,140.255l1.027.988a4.671,4.671,0,1,1,.039-6.162l-1.053,1.04a3.2,3.2,0,1,0-2.444,5.317A3.084,3.084,0,0,0,108.1,140.255Z"
         id="path28" />
      <path
         class="a9971e00-a234-428a-97fc-a7a1efe77b51"
         d="M112.027,142.712h-1.469v-9.295l1.469-.248Z"
         id="path30" />
      <path
         class="a9971e00-a234-428a-97fc-a7a1efe77b51"
         d="M113.652,133.976a.917.917,0,0,1,1.833,0,.917.917,0,0,1-1.833,0Zm1.651,8.736h-1.469V136.2H115.3Z"
         id="path32" />
      <path
         class="a9971e00-a234-428a-97fc-a7a1efe77b51"
         d="M120.126,142.842a3.311,3.311,0,0,1-3.316-3.38,3.209,3.209,0,0,1,3.173-3.367,3.126,3.126,0,0,1,3.081,3.354v.364h-4.81a1.988,1.988,0,0,0,1.949,1.781,2.113,2.113,0,0,0,1.548-.611l.962.9A3.762,3.762,0,0,1,120.126,142.842Zm-1.846-3.925h3.393a1.783,1.783,0,0,0-1.7-1.626A1.749,1.749,0,0,0,118.28,138.917Z"
         id="path34" />
      <path
         class="a9971e00-a234-428a-97fc-a7a1efe77b51"
         d="M124.559,136.2h1.469v1.066a2.364,2.364,0,0,1,2.067-1.17,2.192,2.192,0,0,1,2.249,2.327v4.29h-1.469v-3.874a1.4,1.4,0,0,0-1.43-1.56,1.67,1.67,0,0,0-1.417.78v4.654h-1.469Z"
         id="path36" />
      <path
         class="a9971e00-a234-428a-97fc-a7a1efe77b51"
         d="M132.931,137.369h-1.314V136.2h1.314v-1.794l1.469-.312V136.2h1.82v1.17H134.4v3.3c0,.637.247.884.91.884a2.7,2.7,0,0,0,.884-.156v1.235a4.583,4.583,0,0,1-1.261.182c-1.313,0-2-.624-2-1.819Z"
         id="path38" />
    </g>
    <g
       id="g48">
      <path
         class="a9971e00-a234-428a-97fc-a7a1efe77b51"
         d="M38.032,208.9h2.58v4.079h4.245V208.9h2.58v10.5h-2.58v-4.154H40.612V219.4h-2.58Z"
         id="path42" />
      <path
         class="a9971e00-a234-428a-97fc-a7a1efe77b51"
         d="M49.252,209.114a1.373,1.373,0,0,1,2.745,0,1.373,1.373,0,0,1-2.745,0Zm2.58,10.289H49.4v-7.739h2.43Z"
         id="path44" />
      <path
         class="a9971e00-a234-428a-97fc-a7a1efe77b51"
         d="M54.741,213.539h-1.5v-1.875h1.5v-2.146l2.431-.494v2.64h2.069v1.875H57.172v3c0,.689.27.929,1.019.929a3.256,3.256,0,0,0,.99-.165v1.965a6.754,6.754,0,0,1-1.665.24c-1.83,0-2.775-.839-2.775-2.49Z"
         id="path46" />
    </g>
    <g
       id="g60">
      <rect
         class="b0745f14-8095-4268-92aa-214a1e196902"
         x="83.82"
         y="71.607"
         width="69.206"
         height="53.052"
         id="rect50" />
      <line
         class="ab70b589-bf80-4ce0-8ef9-ee5153ef94eb"
         x1="145.041"
         y1="79.571"
         x2="145.041"
         y2="79.571"
         id="line52" />
      <line
         class="ab70b589-bf80-4ce0-8ef9-ee5153ef94eb"
         x1="139.717"
         y1="79.571"
         x2="139.717"
         y2="79.571"
         id="line54" />
      <line
         class="ab70b589-bf80-4ce0-8ef9-ee5153ef94eb"
         x1="134.394"
         y1="79.571"
         x2="134.394"
         y2="79.571"
         id="line56" />
      <line
         class="b2aa5c9f-4159-4b39-847c-62376974edda"
         x1="91.805"
         y1="79.571"
         x2="113.099"
         y2="79.571"
         id="line58" />
    </g>
    <g
       id="g68">
      <rect
         class="b0745f14-8095-4268-92aa-214a1e196902"
         x="344.167"
         y="88.323"
         width="78.481"
         height="19.62"
         id="rect62" />
      <line
         class="ab70b589-bf80-4ce0-8ef9-ee5153ef94eb"
         x1="414.258"
         y1="96.737"
         x2="414.258"
         y2="96.737"
         id="line64" />
      <line
         class="b2aa5c9f-4159-4b39-847c-62376974edda"
         x1="353.778"
         y1="99.535"
         x2="365.55"
         y2="99.535"
         id="line66" />
    </g>
    <g
       id="g104">
      <path
         class="a9971e00-a234-428a-97fc-a7a1efe77b51"
         d="M589.431,133.611c1.715,0,2.873.962,2.873,2.392a2.18,2.18,0,0,1-1.457,2.015,2.276,2.276,0,0,1,1.769,2.158c0,1.508-1.209,2.535-3,2.535h-4.226v-9.1Zm-2.483,1.274v2.548h2.327c.9,0,1.468-.494,1.468-1.274s-.572-1.274-1.468-1.274Zm4.094,5.149a1.419,1.419,0,0,0-1.611-1.392h-2.483v2.8h2.483A1.428,1.428,0,0,0,591.042,140.034Z"
         id="path70" />
      <path
         class="a9971e00-a234-428a-97fc-a7a1efe77b51"
         d="M593.928,140.839c0-1.17.949-1.911,2.483-1.911a4.009,4.009,0,0,1,1.755.4v-.715c0-.859-.494-1.3-1.5-1.3a4.506,4.506,0,0,0-1.9.507l-.52-1.066a6.253,6.253,0,0,1,2.7-.663c1.691,0,2.665.859,2.665,2.367v4.25h-1.456v-.663a2.714,2.714,0,0,1-1.936.767A2.054,2.054,0,0,1,593.928,140.839Zm2.7.95a2.318,2.318,0,0,0,1.534-.534v-1.066a3.367,3.367,0,0,0-1.508-.311c-.833,0-1.352.364-1.352.935C595.306,141.412,595.825,141.789,596.632,141.789Z"
         id="path72" />
      <path
         class="a9971e00-a234-428a-97fc-a7a1efe77b51"
         d="M606.057,140.827l.884.884a3.387,3.387,0,0,1-2.548,1.13,3.368,3.368,0,0,1,0-6.734,3.509,3.509,0,0,1,2.6,1.093l-.91.948a2.151,2.151,0,0,0-1.638-.767,2.09,2.09,0,0,0,.039,4.161A2,2,0,0,0,606.057,140.827Z"
         id="path74" />
      <path
         class="a9971e00-a234-428a-97fc-a7a1efe77b51"
         d="M608.2,133.417l1.469-.248v5.811l2.7-2.782h1.678l-2.977,3.016,3.159,3.5h-1.885l-2.678-3v3H608.2Z"
         id="path76" />
      <path
         class="a9971e00-a234-428a-97fc-a7a1efe77b51"
         d="M619.59,138.409v1.234h-4.524v-1.234Z"
         id="path78" />
      <path
         class="a9971e00-a234-428a-97fc-a7a1efe77b51"
         d="M624.257,142.841a3.31,3.31,0,0,1-3.315-3.38,3.208,3.208,0,0,1,3.173-3.367,3.126,3.126,0,0,1,3.08,3.355v.363h-4.81a1.989,1.989,0,0,0,1.95,1.781,2.11,2.11,0,0,0,1.547-.611l.962.9A3.762,3.762,0,0,1,624.257,142.841Zm-1.846-3.925H625.8a1.783,1.783,0,0,0-1.7-1.625A1.748,1.748,0,0,0,622.411,138.916Z"
         id="path80" />
      <path
         class="a9971e00-a234-428a-97fc-a7a1efe77b51"
         d="M628.69,136.2h1.468v1.066a2.368,2.368,0,0,1,2.068-1.17,2.192,2.192,0,0,1,2.249,2.327v4.29h-1.47v-3.874a1.4,1.4,0,0,0-1.43-1.56,1.671,1.671,0,0,0-1.417.78v4.654H628.69Z"
         id="path82" />
      <path
         class="a9971e00-a234-428a-97fc-a7a1efe77b51"
         d="M640.909,141.84a2.505,2.505,0,0,1-2,.937,3.333,3.333,0,0,1,.091-6.631,2.49,2.49,0,0,1,1.9.858v-3.587l1.469-.248v9.542h-1.457Zm-1.559-.3a1.952,1.952,0,0,0,1.547-.715v-2.743a2.019,2.019,0,0,0-1.547-.7,2.086,2.086,0,0,0,0,4.161Z"
         id="path84" />
      <path
         class="a9971e00-a234-428a-97fc-a7a1efe77b51"
         d="M648.254,142.711,646.5,136.2h1.4l1.143,4.6,1.339-4.6h1.248l1.34,4.615,1.131-4.615h1.377l-1.754,6.513H652.31L651,138.123l-1.313,4.588Z"
         id="path86" />
      <path
         class="a9971e00-a234-428a-97fc-a7a1efe77b51"
         d="M659.707,142.841a3.31,3.31,0,0,1-3.315-3.38,3.208,3.208,0,0,1,3.172-3.367,3.127,3.127,0,0,1,3.082,3.355v.363h-4.811a1.989,1.989,0,0,0,1.95,1.781,2.112,2.112,0,0,0,1.547-.611l.962.9A3.762,3.762,0,0,1,659.707,142.841Zm-1.846-3.925h3.393a1.783,1.783,0,0,0-1.7-1.625A1.749,1.749,0,0,0,657.861,138.916Z"
         id="path88" />
      <path
         class="a9971e00-a234-428a-97fc-a7a1efe77b51"
         d="M667.507,142.777a2.425,2.425,0,0,1-1.924-.91v.844H664.14v-9.294l1.469-.248v3.9a2.539,2.539,0,0,1,2-.923,3.332,3.332,0,0,1-.105,6.631Zm-1.9-4.668v2.718a2,2,0,0,0,1.56.715,2.086,2.086,0,0,0,0-4.161A1.912,1.912,0,0,0,665.609,138.109Z"
         id="path90" />
      <path
         class="a9971e00-a234-428a-97fc-a7a1efe77b51"
         d="M675.113,140.969a3.74,3.74,0,0,0,2.091.742c.782,0,1.314-.351,1.314-.872,0-.4-.273-.624-.9-.741l-1.156-.2c-1.262-.234-1.885-.818-1.885-1.794,0-1.222,1-2.015,2.522-2.015a4.577,4.577,0,0,1,2.561.781l-.689.961a3.56,3.56,0,0,0-1.963-.624c-.676,0-1.118.287-1.118.767,0,.416.234.6.924.715l1.143.208c1.3.247,1.924.846,1.924,1.82a2.385,2.385,0,0,1-2.651,2.119,4.372,4.372,0,0,1-2.809-.883Z"
         id="path92" />
      <path
         class="a9971e00-a234-428a-97fc-a7a1efe77b51"
         d="M684.251,142.841a3.311,3.311,0,0,1-3.316-3.38,3.208,3.208,0,0,1,3.173-3.367,3.126,3.126,0,0,1,3.081,3.355v.363h-4.811a1.99,1.99,0,0,0,1.95,1.781,2.114,2.114,0,0,0,1.548-.611l.961.9A3.759,3.759,0,0,1,684.251,142.841Zm-1.846-3.925H685.8a1.784,1.784,0,0,0-1.7-1.625A1.749,1.749,0,0,0,682.405,138.916Z"
         id="path94" />
      <path
         class="a9971e00-a234-428a-97fc-a7a1efe77b51"
         d="M688.684,136.2h1.469v1.418a1.929,1.929,0,0,1,1.794-1.534,1.731,1.731,0,0,1,.636.129V137.5a2.045,2.045,0,0,0-.8-.157,1.788,1.788,0,0,0-1.625,1.079v4.29h-1.469Z"
         id="path96" />
      <path
         class="a9971e00-a234-428a-97fc-a7a1efe77b51"
         d="M693.026,136.2h1.6l1.808,4.759,1.807-4.759h1.547l-2.678,6.513h-1.417Z"
         id="path98" />
      <path
         class="a9971e00-a234-428a-97fc-a7a1efe77b51"
         d="M703.855,142.841a3.31,3.31,0,0,1-3.316-3.38,3.209,3.209,0,0,1,3.173-3.367,3.126,3.126,0,0,1,3.08,3.355v.363h-4.809a1.988,1.988,0,0,0,1.95,1.781,2.112,2.112,0,0,0,1.547-.611l.962.9A3.764,3.764,0,0,1,703.855,142.841Zm-1.846-3.925H705.4a1.783,1.783,0,0,0-1.7-1.625A1.747,1.747,0,0,0,702.009,138.916Z"
         id="path100" />
      <path
         class="a9971e00-a234-428a-97fc-a7a1efe77b51"
         d="M708.287,136.2h1.469v1.418a1.931,1.931,0,0,1,1.794-1.534,1.74,1.74,0,0,1,.637.129V137.5a2.05,2.05,0,0,0-.806-.157,1.789,1.789,0,0,0-1.625,1.079v4.29h-1.469Z"
         id="path102" />
    </g>
    <g
       id="g112">
      <rect
         class="b0745f14-8095-4268-92aa-214a1e196902"
         x="609.054"
         y="88.323"
         width="78.481"
         height="19.62"
         id="rect106" />
      <line
         class="ab70b589-bf80-4ce0-8ef9-ee5153ef94eb"
         x1="679.145"
         y1="96.737"
         x2="679.145"
         y2="96.737"
         id="line108" />
      <line
         class="b2aa5c9f-4159-4b39-847c-62376974edda"
         x1="618.665"
         y1="99.535"
         x2="630.437"
         y2="99.535"
         id="line110" />
    </g>
    <g
       id="g118">
      <line
         class="b667e18e-b62b-4d67-b023-3167352c367b"
         x1="199.491"
         y1="93.13"
         x2="295.507"
         y2="93.13"
         id="line114" />
      <polygon
         class="eae4e48b-307e-42b9-901d-582bd7278fd9"
         points="294.048 98.115 302.682 93.13 294.048 88.144 294.048 98.115"
         id="polygon116" />
    </g>
    <g
       id="g124">
      <line
         class="b667e18e-b62b-4d67-b023-3167352c367b"
         x1="206.666"
         y1="122.381"
         x2="302.682"
         y2="122.381"
         id="line120" />
      <polygon
         class="eae4e48b-307e-42b9-901d-582bd7278fd9"
         points="208.125 127.367 199.491 122.381 208.125 117.395 208.125 127.367"
         id="polygon122" />
    </g>
    <g
       id="g130">
      <circle
         class="a9971e00-a234-428a-97fc-a7a1efe77b51"
         cx="118.423"
         cy="40.776"
         r="10"
         id="circle126" />
      <path
         class="a53ca027-5c0f-42ea-b363-730f0b316395"
         d="M119.62,44.561h-1.694V38.62l-1.518.627v-1.5l2.145-.891h1.067Z"
         id="path128" />
    </g>
    <g
       id="g136">
      <circle
         class="a9971e00-a234-428a-97fc-a7a1efe77b51"
         cx="383.407"
         cy="40.776"
         r="10"
         id="circle132" />
      <path
         class="a53ca027-5c0f-42ea-b363-730f0b316395"
         d="M380.435,43.351l3.256-3.223a1.441,1.441,0,0,0,.517-1.024c0-.495-.484-.869-1.133-.869a2.656,2.656,0,0,0-1.948.946l-.946-1.155a4.231,4.231,0,0,1,2.949-1.265c1.639,0,2.729.891,2.729,2.233a2.689,2.689,0,0,1-1,1.991l-2.222,2.146,3.333-.011v1.441h-5.533Z"
         id="path134" />
    </g>
    <g
       id="g142">
      <circle
         class="a9971e00-a234-428a-97fc-a7a1efe77b51"
         cx="251.087"
         cy="138.779"
         r="10"
         id="circle138" />
      <path
         class="a53ca027-5c0f-42ea-b363-730f0b316395"
         d="M250.721,142.673a4.018,4.018,0,0,1-3.036-1.242l1.144-1.056a2.183,2.183,0,0,0,1.871.814c.835,0,1.385-.374,1.385-.946,0-.484-.4-.792-1.011-.792h-.991v-1.4h.815c.627,0,1-.319,1-.858s-.518-.945-1.211-.945a2.144,2.144,0,0,0-1.793.879l-1.155-1.045a4.043,4.043,0,0,1,3.014-1.342c1.684,0,2.85.913,2.85,2.222a1.86,1.86,0,0,1-1.452,1.76,1.785,1.785,0,0,1,1.65,1.662C253.8,141.716,252.515,142.673,250.721,142.673Z"
         id="path140" />
    </g>
    <path
       class="f1b44c17-abc3-45b9-8d54-41d71d382bee"
       d="M637.891,176.941a.761.761,0,0,0-.75.75v6a.75.75,0,1,0,1.5,0v-6A.76.76,0,0,0,637.891,176.941Zm4,0a.761.761,0,0,0-.75.75v6a.75.75,0,1,0,1.5,0v-6A.76.76,0,0,0,641.891,176.941Zm-4-9a.761.761,0,0,0-.75.75v6a.75.75,0,1,0,1.5,0v-6A.76.76,0,0,0,637.891,167.941Zm12,7.5a.759.759,0,0,0,.75-.75v-6a.75.75,0,0,0-1.5,0v6A.76.76,0,0,0,649.891,175.441Zm4,1.5a.761.761,0,0,0-.75.75v6a.75.75,0,1,0,1.5,0v-6A.76.76,0,0,0,653.891,176.941Zm-6.25-5.25a3.75,3.75,0,1,0-3.75,3.75A3.75,3.75,0,0,0,647.641,171.691Zm-3.75,2.25a2.25,2.25,0,1,1,2.25-2.25A2.25,2.25,0,0,1,643.891,173.941Zm15.75-2.25a3.75,3.75,0,1,0-3.75,3.75A3.75,3.75,0,0,0,659.641,171.691Zm-3.75,2.25a2.25,2.25,0,1,1,2.25-2.25A2.25,2.25,0,0,1,655.891,173.941Zm2,3a.761.761,0,0,0-.75.75v6a.75.75,0,1,0,1.5,0v-6A.76.76,0,0,0,657.891,176.941Zm-10,0a3.75,3.75,0,1,0,3.75,3.75,3.75,3.75,0,0,0-3.75-3.75Zm0,6a2.25,2.25,0,1,1,2.25-2.25A2.25,2.25,0,0,1,647.891,182.941Z"
       id="path144" />
    <path
       class="f1b44c17-abc3-45b9-8d54-41d71d382bee"
       d="M372.907,176.941a.76.76,0,0,0-.75.75v6a.75.75,0,0,0,1.5,0v-6A.76.76,0,0,0,372.907,176.941Zm4,0a.76.76,0,0,0-.75.75v6a.75.75,0,0,0,1.5,0v-6A.76.76,0,0,0,376.907,176.941Zm-4-9a.76.76,0,0,0-.75.75v6a.75.75,0,0,0,1.5,0v-6A.76.76,0,0,0,372.907,167.941Zm12,7.5a.759.759,0,0,0,.75-.75v-6a.75.75,0,1,0-1.5,0v6A.759.759,0,0,0,384.907,175.441Zm4,1.5a.76.76,0,0,0-.75.75v6a.75.75,0,0,0,1.5,0v-6A.76.76,0,0,0,388.907,176.941Zm-6.25-5.25a3.75,3.75,0,1,0-3.75,3.75A3.75,3.75,0,0,0,382.657,171.691Zm-3.75,2.25a2.25,2.25,0,1,1,2.25-2.25A2.25,2.25,0,0,1,378.907,173.941Zm15.75-2.25a3.75,3.75,0,1,0-3.75,3.75A3.75,3.75,0,0,0,394.657,171.691Zm-3.75,2.25a2.25,2.25,0,1,1,2.25-2.25A2.25,2.25,0,0,1,390.907,173.941Zm2,3a.76.76,0,0,0-.75.75v6a.75.75,0,0,0,1.5,0v-6A.76.76,0,0,0,392.907,176.941Zm-10,0a3.75,3.75,0,1,0,3.75,3.75,3.75,3.75,0,0,0-3.75-3.75Zm0,6a2.25,2.25,0,1,1,2.25-2.25A2.25,2.25,0,0,1,382.907,182.941Z"
       id="path146" />
    <path
       class="f1b44c17-abc3-45b9-8d54-41d71d382bee"
       d="M240.587,164.128a.759.759,0,0,0-.75.75v6a.75.75,0,0,0,1.5,0v-6A.76.76,0,0,0,240.587,164.128Zm4,0a.759.759,0,0,0-.75.75v6a.75.75,0,0,0,1.5,0v-6A.76.76,0,0,0,244.587,164.128Zm-4-9a.759.759,0,0,0-.75.75v6a.75.75,0,0,0,1.5,0v-6A.76.76,0,0,0,240.587,155.128Zm12,7.5a.76.76,0,0,0,.75-.75v-6a.75.75,0,0,0-1.5,0v6A.759.759,0,0,0,252.587,162.628Zm4,1.5a.759.759,0,0,0-.75.75v6a.75.75,0,0,0,1.5,0v-6A.76.76,0,0,0,256.587,164.128Zm-6.25-5.25a3.75,3.75,0,1,0-3.75,3.75A3.75,3.75,0,0,0,250.337,158.878Zm-3.75,2.25a2.25,2.25,0,1,1,2.25-2.25A2.25,2.25,0,0,1,246.587,161.128Zm15.75-2.25a3.75,3.75,0,1,0-3.75,3.75A3.75,3.75,0,0,0,262.337,158.878Zm-3.75,2.25a2.25,2.25,0,1,1,2.25-2.25A2.25,2.25,0,0,1,258.587,161.128Zm2,3a.759.759,0,0,0-.75.75v6a.75.75,0,0,0,1.5,0v-6A.76.76,0,0,0,260.587,164.128Zm-10,0a3.75,3.75,0,1,0,3.75,3.75,3.749,3.749,0,0,0-3.75-3.75Zm0,6a2.25,2.25,0,1,1,2.25-2.25A2.25,2.25,0,0,1,250.587,170.128Z"
       id="path148" />
    <g
       id="eb7aaf90-a3bd-47de-830c-d984702b5aac"
       data-name="PkSZrA.tif">
      <g
         id="g172">
        <path
           class="f3afa751-580c-4a76-ad1f-bcd78317a4bf"
           d="M391.066,114.205a5.612,5.612,0,1,1-1.851.2,1.7,1.7,0,0,0,.692-.2Z"
           id="path150" />
        <path
           class="f3afa751-580c-4a76-ad1f-bcd78317a4bf"
           d="M360.1,141.357l.078.107.009.342-.087.077Z"
           id="path152" />
        <path
           class="f3afa751-580c-4a76-ad1f-bcd78317a4bf"
           d="M385.905,133.961a4.039,4.039,0,0,1-4.062,4.014,4.038,4.038,0,0,1,.041-8.076A4.039,4.039,0,0,1,385.905,133.961Z"
           id="path154" />
        <path
           class="b996e9e4-db23-4240-b8d8-9f7aabad09f6"
           d="M386.411,141.379H388c-.322,2.874-.685,5.706-1.039,8.5a1.32,1.32,0,0,1-.772.119c-.227.01-.454,0-.723,0l-2.4-5.206-.635,5.16a5.9,5.9,0,0,1-1.53,0,67.8,67.8,0,0,1,1.082-8.588h1.354c.387.827.786,1.677,1.182,2.528.388.835.772,1.672,1.2,2.609C386.013,144.744,386.085,143.045,386.411,141.379Z"
           id="path156" />
        <path
           class="b996e9e4-db23-4240-b8d8-9f7aabad09f6"
           d="M379.347,149.9a6.23,6.23,0,0,1-1.694.094c-.425-1.067-.642-2.183-1.022-3.256h-1.3c-.191,1.053-.209,2.137-.436,3.2a9.4,9.4,0,0,1-1.689.068c.311-2.907.7-5.749,1.035-8.507a.514.514,0,0,1,.442-.143,26.711,26.711,0,0,1,3.567.1,2.58,2.58,0,0,1,1.106.454,1.587,1.587,0,0,1,.7,1.443c-.033.5-.085,1.011-.159,1.512a1.917,1.917,0,0,1-1.043,1.427,1.667,1.667,0,0,0-.5.266Zm-3.858-4.636c.462,0,.878,0,1.294,0,1.1,0,1.454-.348,1.524-1.4.042-.624-.2-.983-.822-1.031-.55-.044-1.106-.009-1.678-.009Z"
           id="path158" />
        <path
           class="b996e9e4-db23-4240-b8d8-9f7aabad09f6"
           d="M405.671,149.97a13.568,13.568,0,0,1-1.676.022c-.007-1.246.3-2.434.355-3.664h-2.661l-.487,3.642a7.322,7.322,0,0,1-1.723-.023l1.049-8.5a4.423,4.423,0,0,1,1.694-.027c0,1.123-.278,2.232-.333,3.389h2.644c.228-1.125.26-2.295.5-3.437h1.677C406.415,144.26,406.025,147.1,405.671,149.97Z"
           id="path160" />
        <path
           class="b996e9e4-db23-4240-b8d8-9f7aabad09f6"
           d="M392.4,146.907a7.58,7.58,0,0,1,1.477,0c.209.259.063.483.044.7-.06.685.115.932.786,1.057a1.948,1.948,0,0,0,.365.037c1.386-.014,1.567-.572,1.555-1.545a1.02,1.02,0,0,0-.653-.554q-.9-.368-1.8-.723a2.463,2.463,0,0,1-.86-.49,1.361,1.361,0,0,1-.475-1.069c.015-.3.014-.6.051-.891a2.118,2.118,0,0,1,1.766-2.016,5.178,5.178,0,0,1,2.6-.017c1.145.289,1.9,1.045,1.336,2.7a3.65,3.65,0,0,1-1.543.014c-.132-.177-.043-.367-.025-.553a.706.706,0,0,0-.549-.83,1.948,1.948,0,0,0-1.29.044c-.441.164-.563.419-.624,1.211.08.326.361.413.62.512.6.231,1.214.441,1.817.671a1.776,1.776,0,0,1,1.337,2.13c-.022.244-.059.487-.08.731a2.016,2.016,0,0,1-1.494,1.834,5.27,5.27,0,0,1-3.161.071,1.759,1.759,0,0,1-1.39-2.183A3.335,3.335,0,0,1,392.4,146.907Z"
           id="path162" />
        <path
           class="b996e9e4-db23-4240-b8d8-9f7aabad09f6"
           d="M369.11,141.385h1.5c.214.444,1.535,7.977,1.5,8.57a8.066,8.066,0,0,1-1.568.035,12.224,12.224,0,0,1-.4-1.809h-2.3c-.356.523-.421,1.241-.847,1.8a9.148,9.148,0,0,1-1.508,0A81.238,81.238,0,0,1,369.11,141.385Zm-.731,5.345a13.516,13.516,0,0,0,1.563-.019,27.35,27.35,0,0,1-.4-3.155A16.663,16.663,0,0,1,368.379,146.73Z"
           id="path164" />
        <path
           class="b996e9e4-db23-4240-b8d8-9f7aabad09f6"
           d="M360.188,141.806l-.009-.342c.535-.247,1.089-.041,1.612-.106a34.433,34.433,0,0,1,.979,6.162c.7-2.146,1.592-4.127,2.407-6.131a11.745,11.745,0,0,1,1.628-.017,89.728,89.728,0,0,1-3.55,8.588,7.223,7.223,0,0,1-1.606.013,5.529,5.529,0,0,1-.356-1.59c-.372-2.085-.718-4.175-1.073-6.263C360.2,142.016,360.2,141.911,360.188,141.806Z"
           id="path166" />
        <path
           class="f3afa751-580c-4a76-ad1f-bcd78317a4bf"
           d="M374.876,126.956a2.3,2.3,0,0,1-2.345-2.311,2.373,2.373,0,0,1,2.382-2.353,2.346,2.346,0,0,1,2.314,2.356A2.319,2.319,0,0,1,374.876,126.956Z"
           id="path168" />
        <path
           class="b996e9e4-db23-4240-b8d8-9f7aabad09f6"
           d="M390.49,149.977a7.529,7.529,0,0,1-1.657-.022,67.921,67.921,0,0,1,1.1-8.585,9.024,9.024,0,0,1,1.582.035Z"
           id="path170" />
      </g>
    </g>
  </g>
</svg>
