<?xml version="1.0" encoding="UTF-8" standalone="no"?>
<svg
   xmlns:dc="http://purl.org/dc/elements/1.1/"
   xmlns:cc="http://creativecommons.org/ns#"
   xmlns:rdf="http://www.w3.org/1999/02/22-rdf-syntax-ns#"
   xmlns:svg="http://www.w3.org/2000/svg"
   xmlns="http://www.w3.org/2000/svg"
   xmlns:sodipodi="http://sodipodi.sourceforge.net/DTD/sodipodi-0.dtd"
   xmlns:inkscape="http://www.inkscape.org/namespaces/inkscape"
   id="b7fb1d40-5715-4e1d-8b5f-590a84c54019"
   data-name="Layer 1"
   width="270.515mm"
   height="89.191mm"
   viewBox="0 0 766.814 252.824"
   version="1.1"
   sodipodi:docname="optimizeweb-varnish_Miss-01.svg"
   inkscape:version="0.92.2 5c3e80d, 2017-08-06">
  <metadata
     id="metadata212">
    <rdf:RDF>
      <cc:Work
         rdf:about="">
        <dc:format>image/svg+xml</dc:format>
        <dc:type
           rdf:resource="http://purl.org/dc/dcmitype/StillImage" />
        <dc:title>optimizeweb-varnish</dc:title>
        <dc:subject>
          <rdf:Bag>
            <rdf:li>varnish</rdf:li>
            <rdf:li>cache hit</rdf:li>
            <rdf:li>cache miss</rdf:li>
          </rdf:Bag>
        </dc:subject>
      </cc:Work>
    </rdf:RDF>
  </metadata>
  <sodipodi:namedview
     pagecolor="#ffffff"
     bordercolor="#666666"
     borderopacity="1"
     objecttolerance="10"
     gridtolerance="10"
     guidetolerance="10"
     inkscape:pageopacity="0"
     inkscape:pageshadow="2"
     inkscape:window-width="738"
     inkscape:window-height="480"
     id="namedview210"
     showgrid="false"
     inkscape:zoom="0.31689553"
     inkscape:cx="511.20948"
     inkscape:cy="168.54992"
     inkscape:window-x="0"
     inkscape:window-y="0"
     inkscape:window-maximized="0"
     inkscape:current-layer="b7fb1d40-5715-4e1d-8b5f-590a84c54019" />
  <defs
     id="defs4">
    <style
       id="style2">
      .bdd5e86f-5aa0-484b-be11-4b0051cfc78d {
        fill: #e6e6e6;
      }

      .adaacf56-6550-4e96-8906-9a101347d5c4, .b4f273d3-0551-409e-b49b-63a616c354af {
        fill: #fff;
      }

      .f6628f67-2043-4100-93c5-6d2f3bea7541 {
        fill: #b4b4b4;
      }

      .a2f0ed6f-052b-4c44-a1e5-eda47b669764 {
        fill: #151515;
      }

      .acc034a5-f3f5-452a-8c65-6d38ec5c3b6c, .b4f273d3-0551-409e-b49b-63a616c354af, .b85fece9-bf9a-4e19-8794-b6bb152be17e {
        stroke: #5b5b5b;
        stroke-linecap: round;
        stroke-linejoin: round;
      }

      .acc034a5-f3f5-452a-8c65-6d38ec5c3b6c, .b4f273d3-0551-409e-b49b-63a616c354af {
        stroke-width: 1.5px;
      }

      .acc034a5-f3f5-452a-8c65-6d38ec5c3b6c, .b75905f6-8c5e-4a2b-90ed-ca22edf46eea, .b85fece9-bf9a-4e19-8794-b6bb152be17e {
        fill: none;
      }

      .b85fece9-bf9a-4e19-8794-b6bb152be17e {
        stroke-width: 2px;
      }

      .b75905f6-8c5e-4a2b-90ed-ca22edf46eea {
        stroke: #06c;
        stroke-miterlimit: 10;
      }

      .bbe6a8af-d01c-48c0-901c-232a65542f9b {
        fill: #06c;
      }

      .e6b40281-7305-465a-bd05-2c2fd59201e4 {
        fill: #5b5b5b;
      }

      .a0bdfab7-1001-4ba3-a723-20e1d28632f6 {
        fill: #017bc5;
      }

      .f003028c-dfa7-4ecc-9f55-8dce775fb108 {
        fill: #090b0c;
      }
    </style>
  </defs>
  <title
     id="title6">optimizeweb-varnish</title>
  <rect
     class="bdd5e86f-5aa0-484b-be11-4b0051cfc78d"
     x="18.628"
     y="16.719"
     width="726.216"
     height="218.737"
     id="rect8" />
  <g
     id="g14">
    <rect
       class="adaacf56-6550-4e96-8906-9a101347d5c4"
       x="35.841"
       y="56.715"
       width="161.821"
       height="104.105"
       id="rect10" />
    <path
       class="f6628f67-2043-4100-93c5-6d2f3bea7541"
       d="M197.162,57.215V160.321H36.341V57.215H197.162m1-1H35.341V161.321H198.162V56.215Z"
       id="path12" />
  </g>
  <g
     id="g20">
    <rect
       class="adaacf56-6550-4e96-8906-9a101347d5c4"
       x="300.825"
       y="56.715"
       width="161.822"
       height="104.105"
       id="rect16" />
    <path
       class="f6628f67-2043-4100-93c5-6d2f3bea7541"
       d="M462.146,57.215V160.321H301.325V57.215H462.146m1-1H300.325V161.321H463.146V56.215Z"
       id="path18" />
  </g>
  <g
     id="g26">
    <rect
       class="adaacf56-6550-4e96-8906-9a101347d5c4"
       x="565.809"
       y="56.715"
       width="161.821"
       height="104.105"
       id="rect22" />
    <path
       class="f6628f67-2043-4100-93c5-6d2f3bea7541"
       d="M727.131,57.215V160.321H566.309V57.215H727.131m1-1H565.309V161.321H728.131V56.215Z"
       id="path24" />
  </g>
  <g
     id="g40">
    <path
       class="a2f0ed6f-052b-4c44-a1e5-eda47b669764"
       d="M106.429,141.268l1.028.988a4.67,4.67,0,1,1,.039-6.163l-1.053,1.041A3.2,3.2,0,1,0,104,142.451,3.082,3.082,0,0,0,106.429,141.268Z"
       id="path28" />
    <path
       class="a2f0ed6f-052b-4c44-a1e5-eda47b669764"
       d="M110.355,143.725h-1.468v-9.3l1.468-.247Z"
       id="path30" />
    <path
       class="a2f0ed6f-052b-4c44-a1e5-eda47b669764"
       d="M111.98,134.988a.917.917,0,0,1,1.833,0,.917.917,0,0,1-1.833,0Zm1.651,8.737h-1.469v-6.513h1.469Z"
       id="path32" />
    <path
       class="a2f0ed6f-052b-4c44-a1e5-eda47b669764"
       d="M118.454,143.855a3.311,3.311,0,0,1-3.315-3.38,3.208,3.208,0,0,1,3.172-3.367,3.126,3.126,0,0,1,3.081,3.354v.364h-4.81a1.989,1.989,0,0,0,1.95,1.781,2.116,2.116,0,0,0,1.547-.611l.962.9A3.765,3.765,0,0,1,118.454,143.855Zm-1.846-3.926H120a1.784,1.784,0,0,0-1.7-1.626A1.75,1.75,0,0,0,116.608,139.929Z"
       id="path34" />
    <path
       class="a2f0ed6f-052b-4c44-a1e5-eda47b669764"
       d="M122.887,137.212h1.469v1.066a2.363,2.363,0,0,1,2.068-1.17,2.192,2.192,0,0,1,2.249,2.327v4.29H127.2v-3.874a1.4,1.4,0,0,0-1.43-1.56,1.67,1.67,0,0,0-1.417.78v4.654h-1.469Z"
       id="path36" />
    <path
       class="a2f0ed6f-052b-4c44-a1e5-eda47b669764"
       d="M131.26,138.382h-1.314v-1.17h1.314v-1.794l1.468-.312v2.106h1.821v1.17h-1.821v3.3c0,.637.247.884.91.884a2.694,2.694,0,0,0,.884-.156v1.235a4.619,4.619,0,0,1-1.26.182c-1.313,0-2-.624-2-1.82Z"
       id="path38" />
  </g>
  <g
     id="g50">
    <path
       class="a2f0ed6f-052b-4c44-a1e5-eda47b669764"
       d="M38.881,213.231v7.185h-2.37v-10.5h3.24l2.535,5.04,2.52-5.04h3.24v10.5h-2.43v-7.125l-3.36,6.375Z"
       id="path42" />
    <path
       class="a2f0ed6f-052b-4c44-a1e5-eda47b669764"
       d="M50.011,210.126a1.373,1.373,0,0,1,2.745,0,1.373,1.373,0,0,1-2.745,0Zm2.58,10.29h-2.43v-7.74h2.43Z"
       id="path44" />
    <path
       class="a2f0ed6f-052b-4c44-a1e5-eda47b669764"
       d="M54.916,218a5.013,5.013,0,0,0,2.49.78c.69,0,1.11-.24,1.11-.63,0-.3-.225-.465-.72-.555l-1.485-.27c-1.5-.285-2.28-1.05-2.28-2.25,0-1.59,1.215-2.535,3.24-2.535a6.223,6.223,0,0,1,3.15.885l-1.11,1.545a4.379,4.379,0,0,0-2.22-.66c-.585,0-.93.195-.93.54,0,.315.2.45.8.555l1.455.27c1.53.285,2.34,1.065,2.325,2.235.015,1.515-1.425,2.655-3.33,2.655a6.326,6.326,0,0,1-3.555-.945Z"
       id="path46" />
    <path
       class="a2f0ed6f-052b-4c44-a1e5-eda47b669764"
       d="M62.58,218a5.015,5.015,0,0,0,2.49.78c.69,0,1.11-.24,1.11-.63,0-.3-.225-.465-.72-.555l-1.485-.27c-1.5-.285-2.279-1.05-2.279-2.25,0-1.59,1.214-2.535,3.239-2.535a6.223,6.223,0,0,1,3.15.885l-1.11,1.545a4.379,4.379,0,0,0-2.22-.66c-.585,0-.93.195-.93.54,0,.315.195.45.8.555l1.455.27c1.53.285,2.34,1.065,2.325,2.235.015,1.515-1.425,2.655-3.33,2.655a6.326,6.326,0,0,1-3.555-.945Z"
       id="path48" />
  </g>
  <g
     id="g62">
    <rect
       class="b4f273d3-0551-409e-b49b-63a616c354af"
       x="82.149"
       y="72.62"
       width="69.206"
       height="53.052"
       id="rect52" />
    <line
       class="b85fece9-bf9a-4e19-8794-b6bb152be17e"
       x1="143.369"
       y1="80.583"
       x2="143.369"
       y2="80.583"
       id="line54" />
    <line
       class="b85fece9-bf9a-4e19-8794-b6bb152be17e"
       x1="138.046"
       y1="80.583"
       x2="138.046"
       y2="80.583"
       id="line56" />
    <line
       class="b85fece9-bf9a-4e19-8794-b6bb152be17e"
       x1="132.722"
       y1="80.583"
       x2="132.722"
       y2="80.583"
       id="line58" />
    <line
       class="acc034a5-f3f5-452a-8c65-6d38ec5c3b6c"
       x1="90.134"
       y1="80.583"
       x2="111.428"
       y2="80.583"
       id="line60" />
  </g>
  <g
     id="g70">
    <rect
       class="b4f273d3-0551-409e-b49b-63a616c354af"
       x="342.495"
       y="89.336"
       width="78.481"
       height="19.62"
       id="rect64" />
    <line
       class="b85fece9-bf9a-4e19-8794-b6bb152be17e"
       x1="412.587"
       y1="97.75"
       x2="412.587"
       y2="97.75"
       id="line66" />
    <line
       class="acc034a5-f3f5-452a-8c65-6d38ec5c3b6c"
       x1="352.106"
       y1="100.547"
       x2="363.878"
       y2="100.547"
       id="line68" />
  </g>
  <g
     id="g106">
    <path
       class="a2f0ed6f-052b-4c44-a1e5-eda47b669764"
       d="M587.759,134.624c1.716,0,2.873.962,2.873,2.392a2.18,2.18,0,0,1-1.456,2.015,2.277,2.277,0,0,1,1.769,2.158c0,1.508-1.209,2.535-3,2.535h-4.226v-9.1Zm-2.482,1.274v2.548H587.6c.9,0,1.47-.494,1.47-1.274s-.573-1.274-1.47-1.274Zm4.094,5.149a1.419,1.419,0,0,0-1.612-1.392h-2.482v2.795h2.482A1.428,1.428,0,0,0,589.371,141.047Z"
       id="path72" />
    <path
       class="a2f0ed6f-052b-4c44-a1e5-eda47b669764"
       d="M592.257,141.852c0-1.17.949-1.911,2.484-1.911a4.024,4.024,0,0,1,1.754.4v-.714c0-.859-.494-1.3-1.5-1.3a4.506,4.506,0,0,0-1.9.507l-.52-1.066a6.253,6.253,0,0,1,2.7-.663c1.69,0,2.665.859,2.665,2.366v4.251H596.5v-.663a2.719,2.719,0,0,1-1.937.767A2.054,2.054,0,0,1,592.257,141.852Zm2.7.949a2.318,2.318,0,0,0,1.534-.533V141.2a3.37,3.37,0,0,0-1.508-.312c-.832,0-1.352.365-1.352.936C593.635,142.425,594.155,142.8,594.961,142.8Z"
       id="path74" />
    <path
       class="a2f0ed6f-052b-4c44-a1e5-eda47b669764"
       d="M604.386,141.84l.884.883a3.388,3.388,0,0,1-2.548,1.131,3.368,3.368,0,0,1,0-6.734,3.511,3.511,0,0,1,2.6,1.093l-.911.948a2.153,2.153,0,0,0-1.638-.767,2.089,2.089,0,0,0,.039,4.16A2,2,0,0,0,604.386,141.84Z"
       id="path76" />
    <path
       class="a2f0ed6f-052b-4c44-a1e5-eda47b669764"
       d="M606.531,134.429l1.468-.247v5.811l2.7-2.782h1.678l-2.977,3.016,3.159,3.5h-1.885l-2.679-3v3h-1.468Z"
       id="path78" />
    <path
       class="a2f0ed6f-052b-4c44-a1e5-eda47b669764"
       d="M617.919,139.422v1.234H613.4v-1.234Z"
       id="path80" />
    <path
       class="a2f0ed6f-052b-4c44-a1e5-eda47b669764"
       d="M622.586,143.854a3.31,3.31,0,0,1-3.315-3.38,3.208,3.208,0,0,1,3.172-3.367,3.126,3.126,0,0,1,3.081,3.355v.363h-4.81a1.988,1.988,0,0,0,1.95,1.781,2.116,2.116,0,0,0,1.547-.611l.962.9A3.766,3.766,0,0,1,622.586,143.854Zm-1.846-3.926h3.393a1.784,1.784,0,0,0-1.7-1.625A1.749,1.749,0,0,0,620.74,139.928Z"
       id="path82" />
    <path
       class="a2f0ed6f-052b-4c44-a1e5-eda47b669764"
       d="M627.019,137.211h1.469v1.066a2.364,2.364,0,0,1,2.067-1.17,2.192,2.192,0,0,1,2.249,2.327v4.29h-1.47V139.85a1.4,1.4,0,0,0-1.429-1.56,1.668,1.668,0,0,0-1.417.78v4.654h-1.469Z"
       id="path84" />
    <path
       class="a2f0ed6f-052b-4c44-a1e5-eda47b669764"
       d="M639.239,142.853a2.509,2.509,0,0,1-2,.937,3.333,3.333,0,0,1,.09-6.631,2.489,2.489,0,0,1,1.9.858v-3.588l1.469-.247v9.542h-1.456Zm-1.56-.3a1.953,1.953,0,0,0,1.547-.714V139.1a2.022,2.022,0,0,0-1.547-.7,2.085,2.085,0,0,0,0,4.16Z"
       id="path86" />
    <path
       class="a2f0ed6f-052b-4c44-a1e5-eda47b669764"
       d="M646.583,143.724l-1.756-6.513h1.4l1.144,4.6,1.339-4.6h1.248l1.339,4.615,1.131-4.615h1.378l-1.755,6.513h-1.417l-1.313-4.589-1.313,4.589Z"
       id="path88" />
    <path
       class="a2f0ed6f-052b-4c44-a1e5-eda47b669764"
       d="M658.036,143.854a3.31,3.31,0,0,1-3.315-3.38,3.208,3.208,0,0,1,3.172-3.367,3.126,3.126,0,0,1,3.081,3.355v.363h-4.81a1.989,1.989,0,0,0,1.951,1.781,2.115,2.115,0,0,0,1.546-.611l.962.9A3.766,3.766,0,0,1,658.036,143.854Zm-1.846-3.926h3.393a1.784,1.784,0,0,0-1.7-1.625A1.75,1.75,0,0,0,656.19,139.928Z"
       id="path90" />
    <path
       class="a2f0ed6f-052b-4c44-a1e5-eda47b669764"
       d="M665.836,143.79a2.424,2.424,0,0,1-1.924-.91v.844h-1.443v-9.295l1.469-.247v3.9a2.536,2.536,0,0,1,2-.923,3.332,3.332,0,0,1-.105,6.631Zm-1.9-4.668v2.718a2,2,0,0,0,1.56.714,2.085,2.085,0,0,0,0-4.16A1.912,1.912,0,0,0,663.938,139.122Z"
       id="path92" />
    <path
       class="a2f0ed6f-052b-4c44-a1e5-eda47b669764"
       d="M673.441,141.982a3.751,3.751,0,0,0,2.092.741c.781,0,1.314-.35,1.314-.871,0-.4-.273-.624-.9-.741l-1.157-.195c-1.261-.234-1.885-.819-1.885-1.794,0-1.222,1-2.015,2.522-2.015a4.583,4.583,0,0,1,2.561.78l-.689.962a3.56,3.56,0,0,0-1.963-.624c-.676,0-1.118.286-1.118.767,0,.416.234.6.923.715l1.144.208c1.3.247,1.924.845,1.924,1.82a2.386,2.386,0,0,1-2.652,2.119,4.364,4.364,0,0,1-2.808-.884Z"
       id="path94" />
    <path
       class="a2f0ed6f-052b-4c44-a1e5-eda47b669764"
       d="M682.579,143.854a3.31,3.31,0,0,1-3.315-3.38,3.208,3.208,0,0,1,3.173-3.367,3.126,3.126,0,0,1,3.081,3.355v.363h-4.811a1.991,1.991,0,0,0,1.951,1.781A2.113,2.113,0,0,0,684.2,142l.962.9A3.765,3.765,0,0,1,682.579,143.854Zm-1.845-3.926h3.392a1.784,1.784,0,0,0-1.7-1.625A1.749,1.749,0,0,0,680.734,139.928Z"
       id="path96" />
    <path
       class="a2f0ed6f-052b-4c44-a1e5-eda47b669764"
       d="M687.013,137.211h1.469v1.418a1.93,1.93,0,0,1,1.794-1.535,1.752,1.752,0,0,1,.636.13v1.287a2.063,2.063,0,0,0-.805-.156,1.789,1.789,0,0,0-1.625,1.079v4.29h-1.469Z"
       id="path98" />
    <path
       class="a2f0ed6f-052b-4c44-a1e5-eda47b669764"
       d="M691.355,137.211h1.6l1.808,4.758,1.807-4.758h1.547l-2.678,6.513H694.02Z"
       id="path100" />
    <path
       class="a2f0ed6f-052b-4c44-a1e5-eda47b669764"
       d="M702.184,143.854a3.311,3.311,0,0,1-3.316-3.38,3.208,3.208,0,0,1,3.172-3.367,3.126,3.126,0,0,1,3.081,3.355v.363h-4.809a1.988,1.988,0,0,0,1.95,1.781,2.117,2.117,0,0,0,1.547-.611l.962.9A3.766,3.766,0,0,1,702.184,143.854Zm-1.847-3.926h3.394a1.784,1.784,0,0,0-1.7-1.625A1.75,1.75,0,0,0,700.337,139.928Z"
       id="path102" />
    <path
       class="a2f0ed6f-052b-4c44-a1e5-eda47b669764"
       d="M706.616,137.211h1.469v1.418a1.931,1.931,0,0,1,1.794-1.535,1.762,1.762,0,0,1,.637.13v1.287a2.064,2.064,0,0,0-.806-.156,1.789,1.789,0,0,0-1.625,1.079v4.29h-1.469Z"
       id="path104" />
  </g>
  <g
     id="g114">
    <rect
       class="b4f273d3-0551-409e-b49b-63a616c354af"
       x="607.382"
       y="89.336"
       width="78.481"
       height="19.62"
       id="rect108" />
    <line
       class="b85fece9-bf9a-4e19-8794-b6bb152be17e"
       x1="677.474"
       y1="97.75"
       x2="677.474"
       y2="97.75"
       id="line110" />
    <line
       class="acc034a5-f3f5-452a-8c65-6d38ec5c3b6c"
       x1="616.993"
       y1="100.547"
       x2="628.765"
       y2="100.547"
       id="line112" />
  </g>
  <g
     id="g120">
    <line
       class="b75905f6-8c5e-4a2b-90ed-ca22edf46eea"
       x1="197.819"
       y1="94.142"
       x2="293.835"
       y2="94.142"
       id="line116" />
    <polygon
       class="bbe6a8af-d01c-48c0-901c-232a65542f9b"
       points="292.376 99.128 301.011 94.143 292.376 89.156 292.376 99.128"
       id="polygon118" />
  </g>
  <g
     id="g126">
    <line
       class="b75905f6-8c5e-4a2b-90ed-ca22edf46eea"
       x1="204.995"
       y1="123.393"
       x2="301.011"
       y2="123.393"
       id="line122" />
    <polygon
       class="bbe6a8af-d01c-48c0-901c-232a65542f9b"
       points="206.454 128.379 197.819 123.394 206.454 118.407 206.454 128.379"
       id="polygon124" />
  </g>
  <g
     id="g132">
    <line
       class="b75905f6-8c5e-4a2b-90ed-ca22edf46eea"
       x1="461.892"
       y1="94.142"
       x2="557.908"
       y2="94.142"
       id="line128" />
    <polygon
       class="bbe6a8af-d01c-48c0-901c-232a65542f9b"
       points="556.449 99.128 565.084 94.143 556.449 89.156 556.449 99.128"
       id="polygon130" />
  </g>
  <g
     id="g138">
    <line
       class="b75905f6-8c5e-4a2b-90ed-ca22edf46eea"
       x1="469.068"
       y1="123.393"
       x2="565.084"
       y2="123.393"
       id="line134" />
    <polygon
       class="bbe6a8af-d01c-48c0-901c-232a65542f9b"
       points="470.527 128.379 461.892 123.394 470.527 118.407 470.527 128.379"
       id="polygon136" />
  </g>
  <g
     id="g144">
    <circle
       class="a2f0ed6f-052b-4c44-a1e5-eda47b669764"
       cx="116.752"
       cy="41.788"
       r="10"
       id="circle140" />
    <path
       class="adaacf56-6550-4e96-8906-9a101347d5c4"
       d="M117.949,45.573h-1.695v-5.94l-1.517.626v-1.5l2.144-.891h1.068Z"
       id="path142" />
  </g>
  <g
     id="g150">
    <circle
       class="a2f0ed6f-052b-4c44-a1e5-eda47b669764"
       cx="381.736"
       cy="41.788"
       r="10"
       id="circle146" />
    <path
       class="adaacf56-6550-4e96-8906-9a101347d5c4"
       d="M378.764,44.363l3.256-3.223a1.439,1.439,0,0,0,.517-1.024c0-.494-.484-.868-1.133-.868a2.652,2.652,0,0,0-1.948.946l-.946-1.156a4.231,4.231,0,0,1,2.949-1.265c1.639,0,2.729.891,2.729,2.234a2.692,2.692,0,0,1-1,1.991l-2.222,2.145,3.333-.011v1.441h-5.533Z"
       id="path148" />
  </g>
  <g
     id="g156">
    <circle
       class="a2f0ed6f-052b-4c44-a1e5-eda47b669764"
       cx="381.736"
       cy="175.856"
       r="10"
       id="circle152" />
    <path
       class="adaacf56-6550-4e96-8906-9a101347d5c4"
       d="M378.967,171.94h5.039v1.442h-3.62l-.077,1.727a3.345,3.345,0,0,1,1.508-.352,2.337,2.337,0,0,1,2.595,2.343c0,1.595-1.275,2.662-3.168,2.662a4.219,4.219,0,0,1-2.816-1.034l1.012-1.177a2.829,2.829,0,0,0,1.892.748c.8,0,1.342-.44,1.342-1.111,0-.649-.6-1.122-1.419-1.122a2.631,2.631,0,0,0-1.287.363l-1.188-.352Z"
       id="path154" />
  </g>
  <g
     id="g162">
    <circle
       class="a2f0ed6f-052b-4c44-a1e5-eda47b669764"
       cx="646.72"
       cy="41.788"
       r="10"
       id="circle158" />
    <path
       class="adaacf56-6550-4e96-8906-9a101347d5c4"
       d="M646.355,45.683a4.018,4.018,0,0,1-3.037-1.243l1.144-1.056a2.184,2.184,0,0,0,1.871.814c.836,0,1.385-.374,1.385-.946,0-.484-.394-.792-1.012-.792h-.99v-1.4h.815c.627,0,1-.319,1-.858s-.518-.946-1.211-.946a2.145,2.145,0,0,0-1.793.88l-1.157-1.046a4.051,4.051,0,0,1,3.016-1.342c1.684,0,2.85.913,2.85,2.223a1.861,1.861,0,0,1-1.454,1.76,1.785,1.785,0,0,1,1.651,1.661C649.435,44.726,648.148,45.683,646.355,45.683Z"
       id="path160" />
  </g>
  <g
     id="g168">
    <circle
       class="a2f0ed6f-052b-4c44-a1e5-eda47b669764"
       cx="249.415"
       cy="139.791"
       r="10"
       id="circle164" />
    <path
       class="adaacf56-6550-4e96-8906-9a101347d5c4"
       d="M246.047,139.847c0-2.464,1.5-4.1,3.74-4.1a3.641,3.641,0,0,1,2.344.836l-.98,1.211a2.148,2.148,0,0,0-1.5-.528c-1.254,0-1.925.946-1.925,2.641a2.4,2.4,0,0,1,1.969-1.09,2.369,2.369,0,0,1,2.586,2.333,2.639,2.639,0,0,1-2.85,2.551C247.411,143.7,246.047,142.147,246.047,139.847Zm1.782.957a1.646,1.646,0,0,0,1.518,1.441,1.156,1.156,0,0,0,1.277-1.067,1.085,1.085,0,0,0-1.211-1.045A2.141,2.141,0,0,0,247.829,140.8Z"
       id="path166" />
  </g>
  <g
     id="g174">
    <circle
       class="a2f0ed6f-052b-4c44-a1e5-eda47b669764"
       cx="513.488"
       cy="139.791"
       r="10"
       id="circle170" />
    <path
       class="adaacf56-6550-4e96-8906-9a101347d5c4"
       d="M515.7,140.408h.914v1.442H515.7v1.726h-1.694V141.85h-4.114v-1.4l3.828-4.577h1.98Zm-1.694,0V137.57l-2.354,2.838Z"
       id="path172" />
  </g>
  <path
     class="e6b40281-7305-465a-bd05-2c2fd59201e4"
     d="M502.988,165.141a.76.76,0,0,0-.75.75v6a.75.75,0,1,0,1.5,0v-6A.759.759,0,0,0,502.988,165.141Zm4,0a.76.76,0,0,0-.75.75v6a.75.75,0,1,0,1.5,0v-6A.759.759,0,0,0,506.988,165.141Zm-4-9a.76.76,0,0,0-.75.75v6a.75.75,0,1,0,1.5,0v-6A.759.759,0,0,0,502.988,156.141Zm12,7.5a.76.76,0,0,0,.75-.75v-6a.75.75,0,1,0-1.5,0v6A.761.761,0,0,0,514.988,163.641Zm4,1.5a.76.76,0,0,0-.75.75v6a.75.75,0,0,0,1.5,0v-6A.759.759,0,0,0,518.988,165.141Zm-6.25-5.25a3.75,3.75,0,1,0-3.75,3.75A3.75,3.75,0,0,0,512.738,159.891Zm-3.75,2.25a2.25,2.25,0,1,1,2.25-2.25A2.251,2.251,0,0,1,508.988,162.141Zm15.75-2.25a3.75,3.75,0,1,0-3.75,3.75A3.75,3.75,0,0,0,524.738,159.891Zm-3.75,2.25a2.25,2.25,0,1,1,2.25-2.25A2.251,2.251,0,0,1,520.988,162.141Zm2,3a.76.76,0,0,0-.75.75v6a.75.75,0,0,0,1.5,0v-6A.759.759,0,0,0,522.988,165.141Zm-10,0a3.75,3.75,0,1,0,3.75,3.75,3.75,3.75,0,0,0-3.75-3.75Zm0,6a2.25,2.25,0,1,1,2.25-2.25A2.251,2.251,0,0,1,512.988,171.141Z"
     id="path176" />
  <path
     class="e6b40281-7305-465a-bd05-2c2fd59201e4"
     d="M636.22,177.954a.759.759,0,0,0-.75.75v6a.75.75,0,0,0,1.5,0v-6A.759.759,0,0,0,636.22,177.954Zm4,0a.759.759,0,0,0-.75.75v6a.75.75,0,0,0,1.5,0v-6A.759.759,0,0,0,640.22,177.954Zm-4-9a.759.759,0,0,0-.75.75v6a.75.75,0,0,0,1.5,0v-6A.759.759,0,0,0,636.22,168.954Zm12,7.5a.76.76,0,0,0,.75-.75v-6a.75.75,0,1,0-1.5,0v6A.76.76,0,0,0,648.22,176.454Zm4,1.5a.759.759,0,0,0-.75.75v6a.75.75,0,0,0,1.5,0v-6A.759.759,0,0,0,652.22,177.954Zm-6.25-5.25a3.75,3.75,0,1,0-3.75,3.75A3.75,3.75,0,0,0,645.97,172.7Zm-3.75,2.25a2.25,2.25,0,1,1,2.25-2.25A2.25,2.25,0,0,1,642.22,174.954Zm15.75-2.25a3.75,3.75,0,1,0-3.75,3.75A3.75,3.75,0,0,0,657.97,172.7Zm-3.75,2.25a2.25,2.25,0,1,1,2.25-2.25A2.25,2.25,0,0,1,654.22,174.954Zm2,3a.759.759,0,0,0-.75.75v6a.75.75,0,0,0,1.5,0v-6A.759.759,0,0,0,656.22,177.954Zm-10,0a3.75,3.75,0,1,0,3.75,3.75,3.75,3.75,0,0,0-3.75-3.75Zm0,6a2.25,2.25,0,1,1,2.25-2.25A2.25,2.25,0,0,1,646.22,183.954Z"
     id="path178" />
  <path
     class="e6b40281-7305-465a-bd05-2c2fd59201e4"
     d="M371.236,202.08a.759.759,0,0,0-.75.75v6a.75.75,0,1,0,1.5,0v-6A.76.76,0,0,0,371.236,202.08Zm4,0a.759.759,0,0,0-.75.75v6a.75.75,0,1,0,1.5,0v-6A.76.76,0,0,0,375.236,202.08Zm-4-9a.759.759,0,0,0-.75.75v6a.75.75,0,1,0,1.5,0v-6A.76.76,0,0,0,371.236,193.08Zm12,7.5a.761.761,0,0,0,.75-.75v-6a.75.75,0,0,0-1.5,0v6A.76.76,0,0,0,383.236,200.58Zm4,1.5a.759.759,0,0,0-.75.75v6a.75.75,0,1,0,1.5,0v-6A.76.76,0,0,0,387.236,202.08Zm-6.25-5.25a3.75,3.75,0,1,0-3.75,3.75A3.75,3.75,0,0,0,380.986,196.83Zm-3.75,2.25a2.25,2.25,0,1,1,2.25-2.25A2.25,2.25,0,0,1,377.236,199.08Zm15.75-2.25a3.75,3.75,0,1,0-3.75,3.75A3.75,3.75,0,0,0,392.986,196.83Zm-3.75,2.25a2.25,2.25,0,1,1,2.25-2.25A2.25,2.25,0,0,1,389.236,199.08Zm2,3a.759.759,0,0,0-.75.75v6a.75.75,0,1,0,1.5,0v-6A.76.76,0,0,0,391.236,202.08Zm-10,0a3.75,3.75,0,1,0,3.75,3.75,3.75,3.75,0,0,0-3.75-3.75Zm0,6a2.25,2.25,0,1,1,2.25-2.25A2.25,2.25,0,0,1,381.236,208.08Z"
     id="path180" />
  <path
     class="e6b40281-7305-465a-bd05-2c2fd59201e4"
     d="M238.915,165.141a.76.76,0,0,0-.75.75v6a.75.75,0,0,0,1.5,0v-6A.759.759,0,0,0,238.915,165.141Zm4,0a.76.76,0,0,0-.75.75v6a.75.75,0,0,0,1.5,0v-6A.759.759,0,0,0,242.915,165.141Zm-4-9a.76.76,0,0,0-.75.75v6a.75.75,0,0,0,1.5,0v-6A.759.759,0,0,0,238.915,156.141Zm12,7.5a.76.76,0,0,0,.75-.75v-6a.75.75,0,0,0-1.5,0v6A.761.761,0,0,0,250.915,163.641Zm4,1.5a.76.76,0,0,0-.75.75v6a.75.75,0,0,0,1.5,0v-6A.759.759,0,0,0,254.915,165.141Zm-6.25-5.25a3.75,3.75,0,1,0-3.75,3.75A3.75,3.75,0,0,0,248.665,159.891Zm-3.75,2.25a2.25,2.25,0,1,1,2.25-2.25A2.251,2.251,0,0,1,244.915,162.141Zm15.75-2.25a3.75,3.75,0,1,0-3.75,3.75A3.75,3.75,0,0,0,260.665,159.891Zm-3.75,2.25a2.25,2.25,0,1,1,2.25-2.25A2.251,2.251,0,0,1,256.915,162.141Zm2,3a.76.76,0,0,0-.75.75v6a.75.75,0,1,0,1.5,0v-6A.759.759,0,0,0,258.915,165.141Zm-10,0a3.75,3.75,0,1,0,3.75,3.75,3.75,3.75,0,0,0-3.75-3.75Zm0,6a2.25,2.25,0,1,1,2.25-2.25A2.251,2.251,0,0,1,248.915,171.141Z"
     id="path182" />
  <g
     id="bf7bb315-a2e1-4a36-b2d0-f0f559502d78"
     data-name="PkSZrA.tif">
    <g
       id="g206">
      <path
         class="a0bdfab7-1001-4ba3-a723-20e1d28632f6"
         d="M389.4,115.971a5.615,5.615,0,1,1-1.851.2,1.7,1.7,0,0,0,.692-.2Z"
         id="path184" />
      <path
         class="a0bdfab7-1001-4ba3-a723-20e1d28632f6"
         d="M358.43,143.123l.077.108.01.342-.087.076Z"
         id="path186" />
      <path
         class="a0bdfab7-1001-4ba3-a723-20e1d28632f6"
         d="M384.234,135.727a4.04,4.04,0,0,1-4.062,4.015,4.039,4.039,0,0,1,.04-8.077A4.04,4.04,0,0,1,384.234,135.727Z"
         id="path188" />
      <path
         class="f003028c-dfa7-4ecc-9f55-8dce775fb108"
         d="M384.74,143.146h1.587c-.322,2.873-.685,5.706-1.04,8.505a1.308,1.308,0,0,1-.771.118c-.227.011-.454,0-.723,0l-2.4-5.206-.634,5.16a5.9,5.9,0,0,1-1.53,0,67.591,67.591,0,0,1,1.082-8.588h1.354c.387.827.786,1.677,1.181,2.528.388.835.773,1.672,1.2,2.609C384.341,146.511,384.413,144.811,384.74,143.146Z"
         id="path190" />
      <path
         class="f003028c-dfa7-4ecc-9f55-8dce775fb108"
         d="M377.675,151.669a6.263,6.263,0,0,1-1.693.094c-.426-1.067-.642-2.183-1.022-3.256h-1.3c-.192,1.053-.209,2.137-.436,3.2a9.589,9.589,0,0,1-1.689.068c.311-2.908.7-5.749,1.035-8.508a.515.515,0,0,1,.442-.142,26.72,26.72,0,0,1,3.567.1,2.584,2.584,0,0,1,1.106.453,1.585,1.585,0,0,1,.7,1.443c-.032.506-.085,1.012-.158,1.513a1.921,1.921,0,0,1-1.043,1.427,1.656,1.656,0,0,0-.5.266Zm-3.858-4.636c.463,0,.878,0,1.294,0,1.1,0,1.454-.348,1.525-1.4.042-.624-.2-.982-.822-1.031-.55-.043-1.106-.009-1.678-.009Z"
         id="path192" />
      <path
         class="f003028c-dfa7-4ecc-9f55-8dce775fb108"
         d="M404,151.737a13.568,13.568,0,0,1-1.676.022c-.007-1.247.3-2.434.355-3.665h-2.661l-.488,3.642a7.312,7.312,0,0,1-1.722-.022l1.049-8.5a4.423,4.423,0,0,1,1.694-.026c0,1.123-.278,2.232-.334,3.389h2.645c.228-1.125.26-2.3.5-3.437h1.677C404.744,146.027,404.354,148.87,404,151.737Z"
         id="path194" />
      <path
         class="f003028c-dfa7-4ecc-9f55-8dce775fb108"
         d="M390.729,148.674a7.58,7.58,0,0,1,1.477,0c.209.259.063.483.044.7-.06.685.115.931.785,1.056a1.8,1.8,0,0,0,.366.037c1.386-.013,1.566-.571,1.555-1.544a1.025,1.025,0,0,0-.653-.554q-.9-.368-1.8-.723a2.49,2.49,0,0,1-.859-.49,1.361,1.361,0,0,1-.475-1.069c.015-.3.014-.6.051-.892a2.118,2.118,0,0,1,1.766-2.016,5.2,5.2,0,0,1,2.6-.017c1.145.29,1.9,1.046,1.336,2.7a3.639,3.639,0,0,1-1.544.013c-.131-.176-.042-.366-.025-.553a.7.7,0,0,0-.548-.829,1.948,1.948,0,0,0-1.29.044c-.441.163-.563.418-.624,1.21.08.327.361.414.62.513.6.23,1.214.44,1.817.671a1.776,1.776,0,0,1,1.337,2.13c-.022.244-.059.487-.08.731a2.017,2.017,0,0,1-1.494,1.834,5.286,5.286,0,0,1-3.161.071,1.758,1.758,0,0,1-1.39-2.183A3.335,3.335,0,0,1,390.729,148.674Z"
         id="path196" />
      <path
         class="f003028c-dfa7-4ecc-9f55-8dce775fb108"
         d="M367.439,143.152h1.5c.215.444,1.536,7.976,1.5,8.57a8.066,8.066,0,0,1-1.568.035,12.338,12.338,0,0,1-.406-1.81h-2.3c-.355.524-.42,1.242-.846,1.8a9.148,9.148,0,0,1-1.508,0A80.941,80.941,0,0,1,367.439,143.152Zm-.731,5.344a13.516,13.516,0,0,0,1.563-.019,27.116,27.116,0,0,1-.4-3.154A16.654,16.654,0,0,1,366.708,148.5Z"
         id="path198" />
      <path
         class="f003028c-dfa7-4ecc-9f55-8dce775fb108"
         d="M358.517,143.573l-.01-.342c.536-.247,1.089-.041,1.613-.107a34.431,34.431,0,0,1,.979,6.163c.7-2.146,1.592-4.128,2.407-6.131a11.743,11.743,0,0,1,1.628-.017,89.942,89.942,0,0,1-3.55,8.588,7.284,7.284,0,0,1-1.606.013,5.5,5.5,0,0,1-.356-1.59c-.372-2.086-.719-4.175-1.073-6.263C358.531,143.783,358.527,143.677,358.517,143.573Z"
         id="path200" />
      <path
         class="a0bdfab7-1001-4ba3-a723-20e1d28632f6"
         d="M373.2,128.723a2.306,2.306,0,0,1-2.345-2.311,2.376,2.376,0,0,1,2.383-2.354,2.346,2.346,0,0,1,2.314,2.357A2.32,2.32,0,0,1,373.2,128.723Z"
         id="path202" />
      <path
         class="f003028c-dfa7-4ecc-9f55-8dce775fb108"
         d="M388.819,151.744a7.591,7.591,0,0,1-1.657-.022,67.96,67.96,0,0,1,1.1-8.586,9.034,9.034,0,0,1,1.582.036Z"
         id="path204" />
    </g>
  </g>
</svg>
